<?xml version="1.0" encoding="UTF-8" standalone="no"?>
<svg
   width="28"
   height="28"
   viewBox="0 0 28 28"
   fill="none"
   version="1.1"
   id="svg8"
   xmlns="http://www.w3.org/2000/svg"
   xmlns:svg="http://www.w3.org/2000/svg">
  <defs
     id="defs12" />
  <rect
     x="-9.5992498"
     y="12.013469"
     width="16.3701"
     height="16.3701"
     transform="rotate(-45)"
     fill="#228126"
     stroke="#124214"
     id="rect4" />
  <path
     d="M 10.5043,11.2727 V 20 H 8.65909 V 13.0241 H 8.60795 L 6.60938,14.277 v -1.6364 l 2.16051,-1.3679 z m 5.2617,8.8466 c -0.6023,0 -1.1392,-0.1108 -1.6108,-0.3324 -0.4688,-0.2216 -0.8409,-0.527 -1.1165,-0.9162 -0.2756,-0.3892 -0.419,-0.8352 -0.4304,-1.338 h 1.7898 c 0.0199,0.338 0.1619,0.6122 0.4261,0.8224 0.2642,0.2102 0.5781,0.3154 0.9418,0.3154 0.2898,0 0.5454,-0.064 0.767,-0.1918 0.2245,-0.1307 0.3992,-0.3111 0.5242,-0.5412 0.1278,-0.233 0.1917,-0.5 0.1917,-0.8011 0,-0.3069 -0.0653,-0.5767 -0.196,-0.8097 -0.1278,-0.233 -0.3054,-0.4148 -0.5327,-0.5455 -0.2272,-0.1306 -0.4872,-0.1974 -0.7798,-0.2002 -0.2557,0 -0.5042,0.0525 -0.7457,0.1576 -0.2387,0.1051 -0.4247,0.2486 -0.5583,0.4304 l -1.6406,-0.294 0.4134,-4.6023 h 5.3352 v 1.5085 h -3.8139 l -0.2259,2.1861 h 0.0512 c 0.1534,-0.2159 0.3849,-0.3949 0.6946,-0.5369 0.3096,-0.142 0.6562,-0.2131 1.0397,-0.2131 0.5256,0 0.9943,0.1236 1.4063,0.3708 0.4119,0.2471 0.7372,0.5866 0.9758,1.0184 0.2387,0.429 0.3566,0.9233 0.3537,1.483 0.0029,0.5881 -0.1335,1.1108 -0.4091,1.5682 -0.2727,0.4545 -0.6548,0.8125 -1.1463,1.0738 -0.4886,0.2586 -1.0568,0.3878 -1.7045,0.3878 z"
     fill="#ffffff"
     id="path6" />
</svg>
