<?xml version="1.0" encoding="UTF-8" standalone="no"?>
<svg
   width="28"
   height="28"
   viewBox="0 0 28 28"
   fill="none"
   version="1.1"
   id="svg8"
   xmlns="http://www.w3.org/2000/svg"
   xmlns:svg="http://www.w3.org/2000/svg">
  <defs
     id="defs12" />
  <rect
     x="-9.5992498"
     y="12.013469"
     width="16.3701"
     height="16.3701"
     transform="rotate(-45)"
     fill="#228126"
     stroke="#124214"
     id="rect4" />
  <path
     d="M 10.5043,11.2727 V 20 H 8.65909 V 13.0241 H 8.60795 L 6.60938,14.277 v -1.6364 l 2.16051,-1.3679 z m 5.4236,8.8466 c -0.4489,-0.0028 -0.8821,-0.0781 -1.2997,-0.2258 -0.4148,-0.1478 -0.7869,-0.3878 -1.1165,-0.7202 -0.3295,-0.3324 -0.5909,-0.7727 -0.7841,-1.321 -0.1903,-0.5483 -0.2855,-1.2216 -0.2855,-2.0199 0.0029,-0.733 0.0867,-1.3878 0.2514,-1.9645 0.1677,-0.5795 0.4063,-1.071 0.7159,-1.4744 0.3125,-0.4034 0.6861,-0.7103 1.1208,-0.9205 0.4346,-0.2131 0.9219,-0.3196 1.4616,-0.3196 0.5824,0 1.0966,0.1136 1.5426,0.3409 0.4461,0.2244 0.804,0.5298 1.0739,0.9162 0.2727,0.3864 0.4375,0.8196 0.4943,1.2997 H 17.283 c -0.071,-0.304 -0.2201,-0.5426 -0.4474,-0.7159 -0.2273,-0.1733 -0.5085,-0.2599 -0.8438,-0.2599 -0.5681,0 -1,0.2471 -1.2954,0.7415 -0.2926,0.4943 -0.4418,1.1661 -0.4475,2.0156 h 0.0597 c 0.1307,-0.2585 0.3068,-0.4787 0.5284,-0.6605 0.2244,-0.1847 0.4787,-0.3253 0.7628,-0.4219 0.2869,-0.0994 0.5895,-0.1492 0.9077,-0.1492 0.517,0 0.9772,0.1222 1.3806,0.3665 0.4034,0.2415 0.7216,0.5739 0.9546,0.9972 0.2329,0.4233 0.3494,0.9076 0.3494,1.4531 0,0.5909 -0.1378,1.1165 -0.4133,1.5767 -0.2728,0.4602 -0.6549,0.821 -1.1463,1.0824 -0.4887,0.2585 -1.0569,0.3864 -1.7046,0.3835 z m -0.0085,-1.4488 c 0.2841,0 0.5383,-0.0682 0.7628,-0.2046 0.2244,-0.1364 0.4005,-0.321 0.5284,-0.554 0.1278,-0.2329 0.1917,-0.4943 0.1917,-0.7841 0,-0.2897 -0.0639,-0.5497 -0.1917,-0.7798 -0.125,-0.2301 -0.2983,-0.4133 -0.5199,-0.5497 -0.2216,-0.1364 -0.4744,-0.2045 -0.7585,-0.2045 -0.2131,0 -0.4105,0.0397 -0.5924,0.1193 -0.1789,0.0795 -0.3366,0.1903 -0.473,0.3324 -0.1335,0.142 -0.2386,0.3068 -0.3153,0.4943 -0.0767,0.1846 -0.1151,0.3821 -0.1151,0.5923 0,0.2813 0.064,0.5384 0.1918,0.7713 0.1307,0.233 0.3068,0.419 0.5284,0.5582 0.2244,0.1393 0.4787,0.2089 0.7628,0.2089 z"
     fill="#ffffff"
     id="path6" />
</svg>
