<?xml version="1.0" encoding="UTF-8" standalone="no"?>
<svg
   width="28"
   height="28"
   viewBox="0 0 28 28"
   fill="none"
   version="1.1"
   id="svg8"
   xmlns="http://www.w3.org/2000/svg"
   xmlns:svg="http://www.w3.org/2000/svg">
  <defs
     id="defs12" />
  <rect
     x="-9.5992498"
     y="12.013469"
     width="16.3701"
     height="16.3701"
     transform="rotate(-45)"
     fill="#228126"
     stroke="#124214"
     id="rect4" />
  <path
     d="m 6.64844,19 v -1.2188 l 2.84765,-2.6367 c 0.24219,-0.2343 0.44532,-0.4453 0.60941,-0.6328 0.1666,-0.1875 0.2929,-0.3711 0.3789,-0.5508 0.0859,-0.1823 0.1289,-0.3789 0.1289,-0.5898 0,-0.2344 -0.0534,-0.4362 -0.1602,-0.6055 -0.1067,-0.1719 -0.2526,-0.3034 -0.4375,-0.3945 -0.18487,-0.0938 -0.39451,-0.1406 -0.62888,-0.1406 -0.24479,0 -0.45833,0.0494 -0.64063,0.1484 -0.18229,0.099 -0.32291,0.2409 -0.42187,0.4258 -0.09896,0.1849 -0.14844,0.4049 -0.14844,0.6601 H 6.57031 c 0,-0.5234 0.11849,-0.9778 0.35547,-1.3632 0.23698,-0.3855 0.56901,-0.6836 0.9961,-0.8946 0.42708,-0.2109 0.91927,-0.3164 1.47656,-0.3164 0.57291,0 1.07166,0.1016 1.49606,0.3047 0.4271,0.2005 0.7591,0.4792 0.9961,0.8359 0.237,0.3568 0.3555,0.7657 0.3555,1.2266 0,0.3021 -0.0599,0.6003 -0.1797,0.8945 -0.1172,0.2943 -0.3268,0.6211 -0.6289,0.9805 -0.3021,0.3568 -0.7279,0.7852 -1.2773,1.2852 l -1.16801,1.1445 v 0.0547 H 12.3516 V 19 Z m 9.88576,0.1094 c -0.5834,0 -1.1029,-0.1003 -1.5586,-0.3008 -0.4531,-0.2031 -0.8112,-0.4818 -1.0742,-0.8359 -0.2604,-0.3568 -0.3946,-0.7683 -0.4024,-1.2344 h 1.7031 c 0.0105,0.1953 0.0743,0.3672 0.1915,0.5156 0.1197,0.1458 0.2786,0.2591 0.4765,0.3399 0.1979,0.0807 0.4206,0.121 0.668,0.121 0.2578,0 0.4857,-0.0455 0.6836,-0.1367 0.1979,-0.0911 0.3528,-0.2174 0.4648,-0.3789 0.112,-0.1614 0.168,-0.3476 0.168,-0.5586 0,-0.2135 -0.0599,-0.4023 -0.1797,-0.5664 C 17.5576,15.9076 17.3883,15.7773 17.167,15.6836 16.9482,15.5898 16.6878,15.543 16.3857,15.543 h -0.7461 v -1.2422 h 0.7461 c 0.2553,0 0.4805,-0.0443 0.6758,-0.1328 0.1979,-0.0886 0.3516,-0.211 0.461,-0.3672 0.1093,-0.1589 0.164,-0.3438 0.164,-0.5547 0,-0.2005 -0.0482,-0.3763 -0.1445,-0.5274 -0.0938,-0.1536 -0.2266,-0.2734 -0.3984,-0.3593 -0.1693,-0.086 -0.3672,-0.1289 -0.5938,-0.1289 -0.2292,0 -0.4388,0.0416 -0.6289,0.125 -0.1901,0.0807 -0.3424,0.1966 -0.457,0.3476 -0.1146,0.1511 -0.1758,0.3281 -0.1836,0.5313 h -1.6211 c 0.0078,-0.461 0.1393,-0.8672 0.3945,-1.2188 0.2552,-0.3515 0.599,-0.6263 1.0313,-0.8242 0.4349,-0.2005 0.9257,-0.3008 1.4726,-0.3008 0.5521,0 1.0352,0.1003 1.4492,0.3008 0.4141,0.2005 0.7357,0.4714 0.9649,0.8125 0.2318,0.3385 0.3463,0.7188 0.3437,1.1406 0.0026,0.4479 -0.1367,0.8216 -0.4179,1.1211 -0.2787,0.2995 -0.642,0.4896 -1.0899,0.5703 v 0.0625 c 0.5886,0.0756 1.0365,0.28 1.3438,0.6133 0.3099,0.3307 0.4635,0.7448 0.4609,1.2422 0.0026,0.4557 -0.1289,0.8607 -0.3945,1.2149 -0.263,0.3541 -0.6263,0.6328 -1.0899,0.8359 -0.4635,0.2031 -0.9948,0.3047 -1.5937,0.3047 z"
     fill="#ffffff"
     id="path6" />
</svg>
