<?xml version="1.0" encoding="UTF-8" standalone="no"?>
<svg
   width="28"
   height="28"
   viewBox="0 0 28 28"
   fill="none"
   version="1.1"
   id="svg8"
   xmlns="http://www.w3.org/2000/svg"
   xmlns:svg="http://www.w3.org/2000/svg">
  <defs
     id="defs12" />
  <rect
     x="-9.5992498"
     y="12.013469"
     width="16.3701"
     height="16.3701"
     transform="rotate(-45)"
     fill="#228126"
     stroke="#124214"
     id="rect4" />
  <path
     d="m 6.64844,19 v -1.2188 l 2.84765,-2.6367 c 0.24219,-0.2343 0.44532,-0.4453 0.60941,-0.6328 0.1666,-0.1875 0.2929,-0.3711 0.3789,-0.5508 0.0859,-0.1823 0.1289,-0.3789 0.1289,-0.5898 0,-0.2344 -0.0534,-0.4362 -0.1602,-0.6055 -0.1067,-0.1719 -0.2526,-0.3034 -0.4375,-0.3945 -0.18487,-0.0938 -0.39451,-0.1406 -0.62888,-0.1406 -0.24479,0 -0.45833,0.0494 -0.64063,0.1484 -0.18229,0.099 -0.32291,0.2409 -0.42187,0.4258 -0.09896,0.1849 -0.14844,0.4049 -0.14844,0.6601 H 6.57031 c 0,-0.5234 0.11849,-0.9778 0.35547,-1.3632 0.23698,-0.3855 0.56901,-0.6836 0.9961,-0.8946 0.42708,-0.2109 0.91927,-0.3164 1.47656,-0.3164 0.57291,0 1.07166,0.1016 1.49606,0.3047 0.4271,0.2005 0.7591,0.4792 0.9961,0.8359 0.237,0.3568 0.3555,0.7657 0.3555,1.2266 0,0.3021 -0.0599,0.6003 -0.1797,0.8945 -0.1172,0.2943 -0.3268,0.6211 -0.6289,0.9805 -0.3021,0.3568 -0.7279,0.7852 -1.2773,1.2852 l -1.16801,1.1445 v 0.0547 H 12.3516 V 19 Z m 9.85056,0.1094 c -0.5521,0 -1.0442,-0.1016 -1.4765,-0.3047 -0.4297,-0.2031 -0.7709,-0.4831 -1.0235,-0.8399 -0.2526,-0.3567 -0.3841,-0.7656 -0.3945,-1.2265 h 1.6406 c 0.0182,0.3099 0.1485,0.5612 0.3906,0.7539 0.2422,0.1927 0.53,0.289 0.8633,0.289 0.2656,0 0.5,-0.0585 0.7031,-0.1757 0.2058,-0.1198 0.3659,-0.2852 0.4805,-0.4961 0.1172,-0.2136 0.1758,-0.4584 0.1758,-0.7344 0,-0.2813 -0.0599,-0.5286 -0.1797,-0.7422 -0.1172,-0.2135 -0.2799,-0.3802 -0.4883,-0.5 -0.2083,-0.1198 -0.4466,-0.181 -0.7148,-0.1836 -0.2344,0 -0.4623,0.0482 -0.6836,0.1445 -0.2188,0.0964 -0.3893,0.2279 -0.5117,0.3946 L 13.7764,15.2188 14.1553,11 h 4.8906 v 1.3828 h -3.4961 l -0.207,2.0039 h 0.0468 c 0.1407,-0.1979 0.3529,-0.362 0.6368,-0.4922 0.2838,-0.1302 0.6015,-0.1953 0.9531,-0.1953 0.4818,0 0.9115,0.1133 1.2891,0.3399 0.3776,0.2265 0.6757,0.5377 0.8945,0.9336 0.2187,0.3932 0.3268,0.8463 0.3242,1.3593 0.0026,0.5391 -0.1224,1.0183 -0.375,1.4375 -0.25,0.4167 -0.6003,0.7448 -1.0508,0.9844 -0.4479,0.237 -0.9687,0.3555 -1.5625,0.3555 z"
     fill="#ffffff"
     id="path6" />
</svg>
