<?xml version="1.0" encoding="UTF-8" standalone="no"?>
<svg
   width="28"
   height="28"
   viewBox="0 0 28 28"
   fill="none"
   version="1.1"
   id="svg8"
   xmlns="http://www.w3.org/2000/svg"
   xmlns:svg="http://www.w3.org/2000/svg">
  <defs
     id="defs12" />
  <rect
     x="-9.5992498"
     y="12.013469"
     width="16.3701"
     height="16.3701"
     transform="rotate(-45)"
     fill="#228126"
     stroke="#124214"
     id="rect4" />
  <path
     d="m 6.64844,19 v -1.2188 l 2.84765,-2.6367 c 0.24219,-0.2343 0.44532,-0.4453 0.60941,-0.6328 0.1666,-0.1875 0.2929,-0.3711 0.3789,-0.5508 0.0859,-0.1823 0.1289,-0.3789 0.1289,-0.5898 0,-0.2344 -0.0534,-0.4362 -0.1602,-0.6055 -0.1067,-0.1719 -0.2526,-0.3034 -0.4375,-0.3945 -0.18487,-0.0938 -0.39451,-0.1406 -0.62888,-0.1406 -0.24479,0 -0.45833,0.0494 -0.64063,0.1484 -0.18229,0.099 -0.32291,0.2409 -0.42187,0.4258 -0.09896,0.1849 -0.14844,0.4049 -0.14844,0.6601 H 6.57031 c 0,-0.5234 0.11849,-0.9778 0.35547,-1.3632 0.23698,-0.3855 0.56901,-0.6836 0.9961,-0.8946 0.42708,-0.2109 0.91927,-0.3164 1.47656,-0.3164 0.57291,0 1.07166,0.1016 1.49606,0.3047 0.4271,0.2005 0.7591,0.4792 0.9961,0.8359 0.237,0.3568 0.3555,0.7657 0.3555,1.2266 0,0.3021 -0.0599,0.6003 -0.1797,0.8945 -0.1172,0.2943 -0.3268,0.6211 -0.6289,0.9805 -0.3021,0.3568 -0.7279,0.7852 -1.2773,1.2852 l -1.16801,1.1445 v 0.0547 H 12.3516 V 19 Z m 9.99906,0.1094 c -0.4115,-0.0026 -0.8086,-0.0716 -1.1914,-0.2071 -0.3803,-0.1354 -0.7214,-0.3554 -1.0235,-0.6601 -0.3021,-0.3047 -0.5416,-0.7083 -0.7187,-1.211 -0.1745,-0.5026 -0.2618,-1.1197 -0.2618,-1.8515 0.0027,-0.6719 0.0795,-1.2721 0.2305,-1.8008 0.1537,-0.5312 0.3724,-0.9818 0.6563,-1.3516 0.2864,-0.3697 0.6289,-0.651 1.0273,-0.8437 0.3984,-0.1953 0.8451,-0.293 1.3399,-0.293 0.5338,0 1.0052,0.1042 1.414,0.3125 0.4089,0.2058 0.737,0.4857 0.9844,0.8399 0.25,0.3541 0.401,0.7513 0.4531,1.1914 h -1.668 c -0.0651,-0.2787 -0.2018,-0.4974 -0.4101,-0.6563 -0.2083,-0.1588 -0.4662,-0.2383 -0.7734,-0.2383 -0.5209,0 -0.9167,0.2266 -1.1875,0.6797 -0.2683,0.4532 -0.405,1.069 -0.4102,1.8477 h 0.0547 c 0.1198,-0.237 0.2812,-0.4388 0.4844,-0.6055 0.2057,-0.1693 0.4388,-0.2982 0.6992,-0.3867 0.263,-0.0911 0.5403,-0.1367 0.832,-0.1367 0.474,0 0.8958,0.112 1.2656,0.3359 0.3698,0.2214 0.6615,0.5261 0.875,0.9141 0.2136,0.388 0.3203,0.832 0.3203,1.332 0,0.5417 -0.1263,1.0234 -0.3789,1.4453 -0.25,0.4219 -0.6002,0.7526 -1.0507,0.9922 -0.448,0.237 -0.9688,0.3542 -1.5625,0.3516 z m -0.0079,-1.3282 c 0.2605,0 0.4935,-0.0625 0.6993,-0.1874 0.2057,-0.1251 0.3672,-0.2943 0.4843,-0.5079 0.1172,-0.2135 0.1758,-0.4531 0.1758,-0.7187 0,-0.2656 -0.0586,-0.5039 -0.1758,-0.7149 -0.1145,-0.2109 -0.2734,-0.3789 -0.4765,-0.5039 -0.2031,-0.125 -0.4349,-0.1875 -0.6953,-0.1875 -0.1953,0 -0.3763,0.0365 -0.543,0.1094 -0.1641,0.0729 -0.3086,0.1745 -0.4336,0.3047 -0.1224,0.1302 -0.2187,0.2812 -0.2891,0.4531 -0.0703,0.1693 -0.1054,0.3503 -0.1054,0.543 0,0.2578 0.0586,0.4935 0.1758,0.707 0.1197,0.2136 0.2812,0.3841 0.4843,0.5117 0.2058,0.1276 0.4388,0.1914 0.6992,0.1914 z"
     fill="#ffffff"
     id="path6" />
</svg>
