<?xml version="1.0" encoding="UTF-8" standalone="no"?>
<svg
   width="28"
   height="28"
   viewBox="0 0 28 28"
   fill="none"
   version="1.1"
   id="svg8"
   xmlns="http://www.w3.org/2000/svg"
   xmlns:svg="http://www.w3.org/2000/svg">
  <defs
     id="defs12" />
  <rect
     x="-9.5992498"
     y="12.013469"
     width="16.3701"
     height="16.3701"
     transform="rotate(-45)"
     fill="#fb9fd3"
     stroke="#965a79"
     id="rect4" />
  <path
     d="M 9.60547,19.1094 C 9.02214,19.1094 8.5026,19.0091 8.04688,18.8086 7.59375,18.6055 7.23568,18.3268 6.97266,17.9727 6.71224,17.6159 6.57813,17.2044 6.57031,16.7383 h 1.70313 c 0.01041,0.1953 0.07422,0.3672 0.1914,0.5156 0.1198,0.1458 0.27865,0.2591 0.47657,0.3399 0.19791,0.0807 0.42057,0.121 0.66797,0.121 0.25781,0 0.48572,-0.0455 0.68362,-0.1367 0.1979,-0.0911 0.3528,-0.2174 0.4648,-0.3789 0.112,-0.1614 0.168,-0.3476 0.168,-0.5586 0,-0.2135 -0.0599,-0.4023 -0.1797,-0.5664 C 10.6289,15.9076 10.4596,15.7773 10.2383,15.6836 10.0195,15.5898 9.75911,15.543 9.45703,15.543 H 8.71094 v -1.2422 h 0.74609 c 0.25521,0 0.48047,-0.0443 0.67577,-0.1328 0.1979,-0.0886 0.3516,-0.211 0.461,-0.3672 0.1093,-0.1589 0.164,-0.3438 0.164,-0.5547 0,-0.2005 -0.0482,-0.3763 -0.1445,-0.5274 -0.0938,-0.1536 -0.2266,-0.2734 -0.3985,-0.3593 -0.1692,-0.086 -0.36714,-0.1289 -0.59371,-0.1289 -0.22916,0 -0.4388,0.0416 -0.6289,0.125 -0.19011,0.0807 -0.34245,0.1966 -0.45703,0.3476 -0.11459,0.1511 -0.17578,0.3281 -0.1836,0.5313 H 6.73047 c 0.00781,-0.461 0.13932,-0.8672 0.39453,-1.2188 0.25521,-0.3515 0.59896,-0.6263 1.03125,-0.8242 0.4349,-0.2005 0.92578,-0.3008 1.47266,-0.3008 0.55209,0 1.03519,0.1003 1.44919,0.3008 0.4141,0.2005 0.7357,0.4714 0.9649,0.8125 0.2317,0.3385 0.3463,0.7188 0.3437,1.1406 0.0026,0.4479 -0.1367,0.8216 -0.418,1.1211 -0.2786,0.2995 -0.6419,0.4896 -1.0898,0.5703 v 0.0625 c 0.5885,0.0756 1.0365,0.28 1.3438,0.6133 0.3099,0.3307 0.4635,0.7448 0.4609,1.2422 0.0026,0.4557 -0.1289,0.8607 -0.3945,1.2149 -0.2631,0.3541 -0.6263,0.6328 -1.0899,0.8359 -0.4635,0.2031 -0.9948,0.3047 -1.59373,0.3047 z m 7.25093,0 c -0.5833,0 -1.1028,-0.1003 -1.5585,-0.3008 -0.4532,-0.2031 -0.8112,-0.4818 -1.0743,-0.8359 -0.2604,-0.3568 -0.3945,-0.7683 -0.4023,-1.2344 h 1.7031 c 0.0104,0.1953 0.0742,0.3672 0.1914,0.5156 0.1198,0.1458 0.2787,0.2591 0.4766,0.3399 0.1979,0.0807 0.4206,0.121 0.668,0.121 0.2578,0 0.4856,-0.0455 0.6835,-0.1367 0.198,-0.0911 0.3529,-0.2174 0.4649,-0.3789 0.112,-0.1614 0.168,-0.3476 0.168,-0.5586 0,-0.2135 -0.0599,-0.4023 -0.1797,-0.5664 C 17.8799,15.9076 17.7106,15.7773 17.4893,15.6836 17.2705,15.5898 17.0101,15.543 16.708,15.543 h -0.7461 v -1.2422 h 0.7461 c 0.2552,0 0.4805,-0.0443 0.6758,-0.1328 0.1979,-0.0886 0.3516,-0.211 0.4609,-0.3672 0.1094,-0.1589 0.1641,-0.3438 0.1641,-0.5547 0,-0.2005 -0.0482,-0.3763 -0.1445,-0.5274 -0.0938,-0.1536 -0.2266,-0.2734 -0.3985,-0.3593 -0.1693,-0.086 -0.3672,-0.1289 -0.5937,-0.1289 -0.2292,0 -0.4388,0.0416 -0.6289,0.125 -0.1901,0.0807 -0.3425,0.1966 -0.4571,0.3476 -0.1146,0.1511 -0.1757,0.3281 -0.1836,0.5313 h -1.6211 c 0.0079,-0.461 0.1394,-0.8672 0.3946,-1.2188 0.2552,-0.3515 0.5989,-0.6263 1.0312,-0.8242 0.4349,-0.2005 0.9258,-0.3008 1.4727,-0.3008 0.5521,0 1.0351,0.1003 1.4492,0.3008 0.4141,0.2005 0.7357,0.4714 0.9648,0.8125 0.2318,0.3385 0.3464,0.7188 0.3438,1.1406 0.0026,0.4479 -0.1367,0.8216 -0.418,1.1211 -0.2786,0.2995 -0.6419,0.4896 -1.0898,0.5703 v 0.0625 c 0.5885,0.0756 1.0364,0.28 1.3437,0.6133 0.3099,0.3307 0.4636,0.7448 0.461,1.2422 0.0026,0.4557 -0.1289,0.8607 -0.3946,1.2149 -0.263,0.3541 -0.6263,0.6328 -1.0898,0.8359 -0.4635,0.2031 -0.9948,0.3047 -1.5938,0.3047 z"
     fill="#2e2d3a"
     id="path6" />
</svg>
