<?xml version="1.0" encoding="UTF-8" standalone="no"?>
<svg
   width="28"
   height="28"
   viewBox="0 0 28 28"
   fill="none"
   version="1.1"
   id="svg8"
   xmlns="http://www.w3.org/2000/svg"
   xmlns:svg="http://www.w3.org/2000/svg">
  <defs
     id="defs12" />
  <rect
     x="-9.5992498"
     y="12.013469"
     width="16.3701"
     height="16.3701"
     transform="rotate(-45)"
     fill="#928300"
     stroke="#5f5101"
     id="rect4" />
  <path
     d="m 9.57031,19.1094 c -0.55208,0 -1.04427,-0.1016 -1.47656,-0.3047 C 7.66406,18.6016 7.32292,18.3216 7.07031,17.9648 6.81771,17.6081 6.6862,17.1992 6.67578,16.7383 h 1.64063 c 0.01823,0.3099 0.14843,0.5612 0.39062,0.7539 0.24219,0.1927 0.52995,0.289 0.86328,0.289 0.26563,0 0.49999,-0.0585 0.70309,-0.1757 0.2058,-0.1198 0.3659,-0.2852 0.4805,-0.4961 0.1172,-0.2136 0.1758,-0.4584 0.1758,-0.7344 0,-0.2813 -0.0599,-0.5286 -0.1797,-0.7422 -0.1172,-0.2135 -0.2799,-0.3802 -0.4883,-0.5 -0.2083,-0.1198 -0.4466,-0.181 -0.71482,-0.1836 -0.23438,0 -0.46224,0.0482 -0.6836,0.1445 -0.21875,0.0964 -0.38932,0.2279 -0.51172,0.3946 L 6.84766,15.2188 7.22656,11 h 4.89064 v 1.3828 H 8.62109 l -0.20703,2.0039 h 0.04688 c 0.14062,-0.1979 0.35286,-0.362 0.63672,-0.4922 0.28385,-0.1302 0.60156,-0.1953 0.95314,-0.1953 0.4818,0 0.9114,0.1133 1.289,0.3399 0.3776,0.2265 0.6758,0.5377 0.8946,0.9336 0.2187,0.3932 0.3268,0.8463 0.3242,1.3593 0.0026,0.5391 -0.1224,1.0183 -0.375,1.4375 -0.25,0.4167 -0.6003,0.7448 -1.0508,0.9844 -0.4479,0.237 -0.9687,0.3555 -1.56249,0.3555 z m 7.12499,0 c -0.5833,0 -1.1029,-0.1003 -1.5586,-0.3008 -0.4531,-0.2031 -0.8112,-0.4818 -1.0742,-0.8359 -0.2604,-0.3568 -0.3945,-0.7683 -0.4023,-1.2344 h 1.7031 c 0.0104,0.1953 0.0742,0.3672 0.1914,0.5156 0.1198,0.1458 0.2786,0.2591 0.4765,0.3399 0.198,0.0807 0.4206,0.121 0.668,0.121 0.2578,0 0.4857,-0.0455 0.6836,-0.1367 0.1979,-0.0911 0.3529,-0.2174 0.4649,-0.3789 0.1119,-0.1614 0.1679,-0.3476 0.1679,-0.5586 0,-0.2135 -0.0599,-0.4023 -0.1797,-0.5664 C 17.7188,15.9076 17.5495,15.7773 17.3281,15.6836 17.1094,15.5898 16.849,15.543 16.5469,15.543 h -0.7461 v -1.2422 h 0.7461 c 0.2552,0 0.4804,-0.0443 0.6758,-0.1328 0.1979,-0.0886 0.3515,-0.211 0.4609,-0.3672 0.1094,-0.1589 0.1641,-0.3438 0.1641,-0.5547 0,-0.2005 -0.0482,-0.3763 -0.1446,-0.5274 -0.0937,-0.1536 -0.2265,-0.2734 -0.3984,-0.3593 -0.1693,-0.086 -0.3672,-0.1289 -0.5938,-0.1289 -0.2291,0 -0.4388,0.0416 -0.6289,0.125 -0.1901,0.0807 -0.3424,0.1966 -0.457,0.3476 -0.1146,0.1511 -0.1758,0.3281 -0.1836,0.5313 h -1.6211 c 0.0078,-0.461 0.1393,-0.8672 0.3945,-1.2188 0.2553,-0.3515 0.599,-0.6263 1.0313,-0.8242 0.4349,-0.2005 0.9258,-0.3008 1.4727,-0.3008 0.552,0 1.0351,0.1003 1.4492,0.3008 0.414,0.2005 0.7356,0.4714 0.9648,0.8125 0.2318,0.3385 0.3464,0.7188 0.3438,1.1406 0.0026,0.4479 -0.1368,0.8216 -0.418,1.1211 -0.2787,0.2995 -0.6419,0.4896 -1.0898,0.5703 v 0.0625 c 0.5885,0.0756 1.0364,0.28 1.3437,0.6133 0.3099,0.3307 0.4635,0.7448 0.4609,1.2422 0.0026,0.4557 -0.1289,0.8607 -0.3945,1.2149 -0.263,0.3541 -0.6263,0.6328 -1.0898,0.8359 -0.4636,0.2031 -0.9948,0.3047 -1.5938,0.3047 z"
     fill="#f4f4f4"
     id="path6" />
</svg>
