<?xml version="1.0" encoding="UTF-8" standalone="no"?>
<svg
   width="28"
   height="28"
   viewBox="0 0 28 28"
   fill="none"
   version="1.1"
   id="svg8"
   xmlns="http://www.w3.org/2000/svg"
   xmlns:svg="http://www.w3.org/2000/svg">
  <defs
     id="defs12" />
  <rect
     x="-9.5992498"
     y="12.013469"
     width="16.3701"
     height="16.3701"
     transform="rotate(-45)"
     fill="#928300"
     stroke="#5f5101"
     id="rect4" />
  <path
     d="M 10.7188,19.1094 C 10.3073,19.1068 9.91016,19.0378 9.52734,18.9023 9.14714,18.7669 8.80599,18.5469 8.50391,18.2422 8.20182,17.9375 7.96224,17.5339 7.78516,17.0312 7.61068,16.5286 7.52344,15.9115 7.52344,15.1797 c 0.0026,-0.6719 0.07942,-1.2721 0.23047,-1.8008 0.15364,-0.5312 0.37239,-0.9818 0.65625,-1.3516 0.28645,-0.3697 0.6289,-0.651 1.02734,-0.8437 0.39844,-0.1953 0.8451,-0.293 1.3398,-0.293 0.5339,0 1.0053,0.1042 1.4141,0.3125 0.4089,0.2058 0.737,0.4857 0.9844,0.8399 0.25,0.3541 0.401,0.7513 0.4531,1.1914 h -1.668 c -0.0651,-0.2787 -0.2018,-0.4974 -0.4101,-0.6563 -0.2084,-0.1588 -0.4662,-0.2383 -0.7735,-0.2383 -0.5208,0 -0.91662,0.2266 -1.18746,0.6797 -0.26823,0.4532 -0.40494,1.069 -0.41015,1.8477 h 0.05469 c 0.11979,-0.237 0.28125,-0.4388 0.48437,-0.6055 0.20573,-0.1693 0.43885,-0.2982 0.69925,-0.3867 0.263,-0.0911 0.5403,-0.1367 0.832,-0.1367 0.474,0 0.8958,0.112 1.2656,0.3359 0.3698,0.2214 0.6615,0.5261 0.875,0.9141 0.2136,0.388 0.3203,0.832 0.3203,1.332 0,0.5417 -0.1263,1.0234 -0.3789,1.4453 -0.25,0.4219 -0.6002,0.7526 -1.0507,0.9922 -0.448,0.237 -0.9688,0.3542 -1.5625,0.3516 z m -0.0079,-1.3282 c 0.2605,0 0.4935,-0.0625 0.6993,-0.1874 0.2057,-0.1251 0.3671,-0.2943 0.4843,-0.5079 0.1172,-0.2135 0.1758,-0.4531 0.1758,-0.7187 0,-0.2656 -0.0586,-0.5039 -0.1758,-0.7149 -0.1146,-0.2109 -0.2734,-0.3789 -0.4765,-0.5039 -0.2032,-0.125 -0.4349,-0.1875 -0.6953,-0.1875 -0.1954,0 -0.3763,0.0365 -0.543,0.1094 -0.1641,0.0729 -0.30861,0.1745 -0.43361,0.3047 -0.12239,0.1302 -0.21875,0.2812 -0.28906,0.4531 -0.07031,0.1693 -0.10547,0.3503 -0.10547,0.543 0,0.2578 0.0586,0.4935 0.17578,0.707 0.1198,0.2136 0.28125,0.3841 0.48436,0.5117 0.2057,0.1276 0.4388,0.1914 0.6992,0.1914 z M 18.3906,11 v 8 h -1.6914 v -6.3945 h -0.0469 l -1.832,1.1484 v -1.5 L 16.8008,11 Z"
     fill="#f4f4f4"
     id="path6" />
</svg>
