<?xml version="1.0" encoding="UTF-8" standalone="no"?>
<svg
   width="28"
   height="28"
   viewBox="0 0 28 28"
   fill="none"
   version="1.1"
   id="svg8"
   xmlns="http://www.w3.org/2000/svg"
   xmlns:svg="http://www.w3.org/2000/svg">
  <defs
     id="defs12" />
  <rect
     x="-9.5992498"
     y="12.013469"
     width="16.3701"
     height="16.3701"
     transform="rotate(-45)"
     fill="#0f6fc2"
     stroke="#03345f"
     id="rect4" />
  <path
     d="M 9.71875,19.1094 C 9.30729,19.1068 8.91016,19.0378 8.52734,18.9023 8.14714,18.7669 7.80599,18.5469 7.50391,18.2422 7.20182,17.9375 6.96224,17.5339 6.78516,17.0312 6.61068,16.5286 6.52344,15.9115 6.52344,15.1797 c 0.0026,-0.6719 0.07942,-1.2721 0.23047,-1.8008 0.15364,-0.5312 0.37239,-0.9818 0.65625,-1.3516 0.28645,-0.3697 0.6289,-0.651 1.02734,-0.8437 0.39844,-0.1953 0.84505,-0.293 1.33984,-0.293 0.53386,0 1.00526,0.1042 1.41406,0.3125 0.4089,0.2058 0.737,0.4857 0.9844,0.8399 0.25,0.3541 0.401,0.7513 0.4531,1.1914 h -1.668 c -0.0651,-0.2787 -0.2018,-0.4974 -0.4101,-0.6563 -0.2084,-0.1588 -0.4662,-0.2383 -0.77346,-0.2383 -0.52083,0 -0.91666,0.2266 -1.1875,0.6797 -0.26823,0.4532 -0.40494,1.069 -0.41015,1.8477 h 0.05469 c 0.11979,-0.237 0.28125,-0.4388 0.48437,-0.6055 0.20573,-0.1693 0.4388,-0.2982 0.69922,-0.3867 0.26302,-0.0911 0.54036,-0.1367 0.83203,-0.1367 0.474,0 0.8958,0.112 1.2656,0.3359 0.3698,0.2214 0.6615,0.5261 0.875,0.9141 0.2136,0.388 0.3203,0.832 0.3203,1.332 0,0.5417 -0.1263,1.0234 -0.3789,1.4453 -0.25,0.4219 -0.6002,0.7526 -1.0507,0.9922 -0.448,0.237 -0.9688,0.3542 -1.56255,0.3516 z M 9.71094,17.7812 c 0.26041,0 0.49346,-0.0625 0.69926,-0.1874 0.2057,-0.1251 0.3671,-0.2943 0.4843,-0.5079 0.1172,-0.2135 0.1758,-0.4531 0.1758,-0.7187 0,-0.2656 -0.0586,-0.5039 -0.1758,-0.7149 -0.1146,-0.2109 -0.2734,-0.3789 -0.4765,-0.5039 -0.2032,-0.125 -0.43493,-0.1875 -0.69534,-0.1875 -0.19532,0 -0.37631,0.0365 -0.54297,0.1094 -0.16406,0.0729 -0.3086,0.1745 -0.4336,0.3047 -0.12239,0.1302 -0.21875,0.2812 -0.28906,0.4531 -0.07031,0.1693 -0.10547,0.3503 -0.10547,0.543 0,0.2578 0.0586,0.4935 0.17578,0.707 0.1198,0.2136 0.28125,0.3841 0.48438,0.5117 0.20573,0.1276 0.4388,0.1914 0.69922,0.1914 z m 7.18356,1.3282 c -0.6015,0 -1.1367,-0.0977 -1.6054,-0.293 -0.4662,-0.1979 -0.8321,-0.4674 -1.0977,-0.8086 -0.2656,-0.3411 -0.3984,-0.7279 -0.3984,-1.1601 0,-0.3334 0.0755,-0.6394 0.2265,-0.918 0.1537,-0.2813 0.362,-0.5143 0.625,-0.6992 0.2631,-0.1875 0.5573,-0.3073 0.8828,-0.3594 v -0.0547 c -0.427,-0.0859 -0.7734,-0.293 -1.039,-0.6211 -0.2656,-0.3307 -0.3985,-0.7148 -0.3985,-1.1523 0,-0.4141 0.1211,-0.7826 0.3633,-1.1055 0.2422,-0.3255 0.5742,-0.5807 0.9961,-0.7656 0.4245,-0.1875 0.9063,-0.2813 1.4453,-0.2813 0.5391,0 1.0196,0.0938 1.4414,0.2813 0.4245,0.1875 0.7579,0.444 1,0.7695 0.2422,0.3229 0.3646,0.6901 0.3672,1.1016 -0.0026,0.4401 -0.138,0.8242 -0.4062,1.1523 -0.2683,0.3281 -0.612,0.5352 -1.0313,0.6211 v 0.0547 c 0.3203,0.0521 0.6107,0.1719 0.8711,0.3594 0.263,0.1849 0.4714,0.4179 0.625,0.6992 0.1563,0.2786 0.2357,0.5846 0.2383,0.918 -0.0026,0.4322 -0.1367,0.819 -0.4023,1.1601 -0.2657,0.3412 -0.6329,0.6107 -1.1016,0.8086 -0.4662,0.1953 -1,0.293 -1.6016,0.293 z m 0,-1.2422 c 0.2683,0 0.5026,-0.0482 0.7032,-0.1445 0.2005,-0.099 0.3567,-0.2344 0.4687,-0.4063 0.1146,-0.1745 0.1719,-0.375 0.1719,-0.6016 0,-0.2317 -0.0586,-0.4362 -0.1758,-0.6132 -0.1172,-0.1797 -0.276,-0.3203 -0.4766,-0.4219 -0.2005,-0.1042 -0.431,-0.1563 -0.6914,-0.1563 -0.2578,0 -0.4882,0.0521 -0.6914,0.1563 -0.2031,0.1016 -0.3633,0.2422 -0.4804,0.4219 -0.1146,0.177 -0.1719,0.3815 -0.1719,0.6132 0,0.2266 0.056,0.4271 0.168,0.6016 0.1119,0.1719 0.2695,0.3073 0.4726,0.4063 0.2031,0.0963 0.4375,0.1445 0.7031,0.1445 z m 0,-3.5742 c 0.224,0 0.4232,-0.0456 0.5977,-0.1368 0.1745,-0.0911 0.3112,-0.2174 0.4101,-0.3789 0.099,-0.1614 0.1485,-0.3476 0.1485,-0.5586 0,-0.2083 -0.0495,-0.3906 -0.1485,-0.5468 -0.0989,-0.1589 -0.2343,-0.2826 -0.4062,-0.3711 -0.1719,-0.0912 -0.3724,-0.1367 -0.6016,-0.1367 -0.2265,0 -0.4271,0.0455 -0.6015,0.1367 -0.1745,0.0885 -0.3112,0.2122 -0.4102,0.3711 -0.0963,0.1562 -0.1445,0.3385 -0.1445,0.5468 0,0.211 0.0495,0.3972 0.1484,0.5586 0.099,0.1615 0.2357,0.2878 0.4102,0.3789 0.1745,0.0912 0.3737,0.1368 0.5976,0.1368 z"
     fill="#f4f4f4"
     id="path6" />
</svg>
