<?xml version="1.0" encoding="UTF-8" standalone="no"?>
<svg
   width="28"
   height="28"
   viewBox="0 0 28 28"
   fill="none"
   version="1.1"
   id="svg8"
   xmlns="http://www.w3.org/2000/svg"
   xmlns:svg="http://www.w3.org/2000/svg">
  <defs
     id="defs12" />
  <rect
     x="-9.5992498"
     y="12.013469"
     width="16.3701"
     height="16.3701"
     transform="rotate(-45)"
     fill="#0f6fc2"
     stroke="#03345f"
     id="rect4" />
  <path
     d="M 9.71875,19.1094 C 9.30729,19.1068 8.91016,19.0378 8.52734,18.9023 8.14714,18.7669 7.80599,18.5469 7.50391,18.2422 7.20182,17.9375 6.96224,17.5339 6.78516,17.0312 6.61068,16.5286 6.52344,15.9115 6.52344,15.1797 c 0.0026,-0.6719 0.07942,-1.2721 0.23047,-1.8008 0.15364,-0.5312 0.37239,-0.9818 0.65625,-1.3516 0.28645,-0.3697 0.6289,-0.651 1.02734,-0.8437 0.39844,-0.1953 0.84505,-0.293 1.33984,-0.293 0.53386,0 1.00526,0.1042 1.41406,0.3125 0.4089,0.2058 0.737,0.4857 0.9844,0.8399 0.25,0.3541 0.401,0.7513 0.4531,1.1914 h -1.668 c -0.0651,-0.2787 -0.2018,-0.4974 -0.4101,-0.6563 -0.2084,-0.1588 -0.4662,-0.2383 -0.77346,-0.2383 -0.52083,0 -0.91666,0.2266 -1.1875,0.6797 -0.26823,0.4532 -0.40494,1.069 -0.41015,1.8477 h 0.05469 c 0.11979,-0.237 0.28125,-0.4388 0.48437,-0.6055 0.20573,-0.1693 0.4388,-0.2982 0.69922,-0.3867 0.26302,-0.0911 0.54036,-0.1367 0.83203,-0.1367 0.474,0 0.8958,0.112 1.2656,0.3359 0.3698,0.2214 0.6615,0.5261 0.875,0.9141 0.2136,0.388 0.3203,0.832 0.3203,1.332 0,0.5417 -0.1263,1.0234 -0.3789,1.4453 -0.25,0.4219 -0.6002,0.7526 -1.0507,0.9922 -0.448,0.237 -0.9688,0.3542 -1.56255,0.3516 z M 9.71094,17.7812 c 0.26041,0 0.49346,-0.0625 0.69926,-0.1874 0.2057,-0.1251 0.3671,-0.2943 0.4843,-0.5079 0.1172,-0.2135 0.1758,-0.4531 0.1758,-0.7187 0,-0.2656 -0.0586,-0.5039 -0.1758,-0.7149 -0.1146,-0.2109 -0.2734,-0.3789 -0.4765,-0.5039 -0.2032,-0.125 -0.43493,-0.1875 -0.69534,-0.1875 -0.19532,0 -0.37631,0.0365 -0.54297,0.1094 -0.16406,0.0729 -0.3086,0.1745 -0.4336,0.3047 -0.12239,0.1302 -0.21875,0.2812 -0.28906,0.4531 -0.07031,0.1693 -0.10547,0.3503 -0.10547,0.543 0,0.2578 0.0586,0.4935 0.17578,0.707 0.1198,0.2136 0.28125,0.3841 0.48438,0.5117 0.20573,0.1276 0.4388,0.1914 0.69922,0.1914 z m 7.09376,-6.8906 c 0.4114,0 0.8073,0.069 1.1875,0.2071 0.3828,0.138 0.7239,0.358 1.0234,0.6601 0.3021,0.3021 0.5404,0.7031 0.7149,1.2031 0.1771,0.4974 0.2669,1.1081 0.2695,1.8321 0,0.6797 -0.0768,1.2864 -0.2305,1.8203 -0.151,0.5312 -0.3685,0.9831 -0.6523,1.3555 -0.2839,0.3723 -0.6263,0.6562 -1.0274,0.8515 -0.401,0.1927 -0.8489,0.2891 -1.3437,0.2891 -0.5339,0 -1.0052,-0.1029 -1.4141,-0.3086 -0.4088,-0.2084 -0.7382,-0.4909 -0.9883,-0.8477 -0.2473,-0.3594 -0.3971,-0.763 -0.4492,-1.2109 h 1.668 c 0.0651,0.2917 0.2018,0.5182 0.4102,0.6797 0.2083,0.1588 0.4661,0.2383 0.7734,0.2383 0.5208,0 0.9167,-0.2266 1.1875,-0.6797 0.2708,-0.4558 0.4075,-1.0795 0.4102,-1.8711 h -0.0547 c -0.1198,0.2343 -0.2813,0.4362 -0.4844,0.6054 -0.2031,0.1667 -0.4362,0.2956 -0.6992,0.3868 -0.2604,0.0911 -0.5378,0.1367 -0.8321,0.1367 -0.4713,0 -0.8919,-0.1107 -1.2617,-0.3321 -0.3698,-0.2213 -0.6614,-0.526 -0.875,-0.914 -0.2135,-0.388 -0.3203,-0.8307 -0.3203,-1.3281 -0.0026,-0.5365 0.1211,-1.0144 0.3711,-1.4336 0.25,-0.4193 0.599,-0.7474 1.0469,-0.9844 0.4505,-0.2396 0.9739,-0.3581 1.5703,-0.3555 z m 0.0117,1.3281 c -0.263,0 -0.4974,0.0625 -0.7031,0.1876 -0.2031,0.1249 -0.3646,0.2929 -0.4844,0.5039 -0.1172,0.2109 -0.1745,0.4466 -0.1719,0.707 0,0.263 0.0573,0.5 0.1719,0.7109 0.1172,0.2084 0.276,0.375 0.4766,0.5 0.2031,0.1224 0.4349,0.1836 0.6953,0.1836 0.1953,0 0.3763,-0.0364 0.543,-0.1094 0.1666,-0.0729 0.3111,-0.1731 0.4335,-0.3007 0.125,-0.1302 0.2227,-0.28 0.293,-0.4493 0.0703,-0.1692 0.1055,-0.3489 0.1055,-0.539 -0.0026,-0.2526 -0.0625,-0.4844 -0.1797,-0.6953 -0.1172,-0.211 -0.2787,-0.3802 -0.4844,-0.5078 -0.2057,-0.1276 -0.4375,-0.1915 -0.6953,-0.1915 z"
     fill="#f4f4f4"
     id="path6" />
</svg>
