<?xml version="1.0" encoding="UTF-8" standalone="no"?>
<svg
   width="28"
   height="28"
   viewBox="0 0 28 28"
   fill="none"
   version="1.1"
   id="svg8"
   xmlns="http://www.w3.org/2000/svg"
   xmlns:svg="http://www.w3.org/2000/svg">
  <defs
     id="defs12" />
  <rect
     x="-9.5992498"
     y="12.013469"
     width="16.3701"
     height="16.3701"
     transform="rotate(-45)"
     fill="#0f6fc2"
     stroke="#03345f"
     id="rect4" />
  <path
     d="M 7.96484,19 11.2813,12.4375 V 12.3828 H 7.41797 V 11 h 5.61333 v 1.4023 L 9.71094,19 Z m 9.01266,-8.1094 c 0.4115,0 0.8073,0.069 1.1875,0.2071 0.3829,0.138 0.724,0.358 1.0235,0.6601 0.3021,0.3021 0.5403,0.7031 0.7148,1.2031 0.1771,0.4974 0.2669,1.1081 0.2696,1.8321 0,0.6797 -0.0769,1.2864 -0.2305,1.8203 -0.1511,0.5312 -0.3685,0.9831 -0.6524,1.3555 -0.2838,0.3723 -0.6263,0.6562 -1.0273,0.8515 -0.401,0.1927 -0.849,0.2891 -1.3438,0.2891 -0.5338,0 -1.0052,-0.1029 -1.414,-0.3086 -0.4089,-0.2084 -0.7383,-0.4909 -0.9883,-0.8477 -0.2474,-0.3594 -0.3971,-0.763 -0.4492,-1.2109 h 1.668 c 0.0651,0.2917 0.2018,0.5182 0.4101,0.6797 0.2083,0.1588 0.4662,0.2383 0.7734,0.2383 0.5209,0 0.9167,-0.2266 1.1875,-0.6797 0.2709,-0.4558 0.4076,-1.0795 0.4102,-1.8711 h -0.0547 c -0.1198,0.2343 -0.2812,0.4362 -0.4844,0.6054 -0.2031,0.1667 -0.4362,0.2956 -0.6992,0.3868 -0.2604,0.0911 -0.5377,0.1367 -0.832,0.1367 -0.4714,0 -0.8919,-0.1107 -1.2617,-0.3321 -0.3698,-0.2213 -0.6615,-0.526 -0.875,-0.914 -0.2136,-0.388 -0.3203,-0.8307 -0.3203,-1.3281 -0.0026,-0.5365 0.1211,-1.0144 0.3711,-1.4336 0.25,-0.4193 0.5989,-0.7474 1.0468,-0.9844 0.4505,-0.2396 0.974,-0.3581 1.5703,-0.3555 z m 0.0118,1.3281 c -0.2631,0 -0.4974,0.0625 -0.7032,0.1876 -0.2031,0.1249 -0.3646,0.2929 -0.4843,0.5039 -0.1172,0.2109 -0.1745,0.4466 -0.1719,0.707 0,0.263 0.0573,0.5 0.1719,0.7109 0.1171,0.2084 0.276,0.375 0.4765,0.5 0.2031,0.1224 0.4349,0.1836 0.6953,0.1836 0.1953,0 0.3763,-0.0364 0.543,-0.1094 0.1667,-0.0729 0.3112,-0.1731 0.4336,-0.3007 0.125,-0.1302 0.2227,-0.28 0.293,-0.4493 0.0703,-0.1692 0.1054,-0.3489 0.1054,-0.539 -0.0026,-0.2526 -0.0625,-0.4844 -0.1797,-0.6953 -0.1171,-0.211 -0.2786,-0.3802 -0.4843,-0.5078 -0.2058,-0.1276 -0.4375,-0.1915 -0.6953,-0.1915 z"
     fill="#f4f4f4"
     id="path6" />
</svg>
