<?xml version="1.0" encoding="UTF-8" standalone="no"?>
<svg
   width="28"
   height="28"
   viewBox="0 0 28 28"
   fill="none"
   version="1.1"
   id="svg8"
   xmlns="http://www.w3.org/2000/svg"
   xmlns:svg="http://www.w3.org/2000/svg">
  <defs
     id="defs12" />
  <rect
     x="-9.5992498"
     y="12.013469"
     width="16.3701"
     height="16.3701"
     transform="rotate(-45)"
     fill="#7c7a7a"
     stroke="#494949"
     id="rect4" />
  <path
     d="m 10.543,10.8906 c 0.4114,0 0.8073,0.069 1.1875,0.2071 0.3828,0.138 0.7239,0.358 1.0234,0.6601 0.3021,0.3021 0.5404,0.7031 0.7149,1.2031 0.177,0.4974 0.2669,1.1081 0.2695,1.8321 0,0.6797 -0.0768,1.2864 -0.2305,1.8203 -0.151,0.5312 -0.3685,0.9831 -0.6523,1.3555 -0.2839,0.3723 -0.6263,0.6562 -1.0274,0.8515 -0.401,0.1927 -0.8489,0.2891 -1.3437,0.2891 -0.53388,0 -1.00523,-0.1029 -1.41409,-0.3086 C 8.66146,18.5924 8.33203,18.3099 8.08203,17.9531 7.83464,17.5937 7.6849,17.1901 7.63281,16.7422 h 1.66797 c 0.06511,0.2917 0.20182,0.5182 0.41016,0.6797 0.20833,0.1588 0.46616,0.2383 0.77346,0.2383 0.5208,0 0.9166,-0.2266 1.1875,-0.6797 0.2708,-0.4558 0.4075,-1.0795 0.4101,-1.8711 h -0.0547 c -0.1197,0.2343 -0.2812,0.4362 -0.4843,0.6054 -0.2032,0.1667 -0.4362,0.2956 -0.6992,0.3868 -0.2605,0.0911 -0.5378,0.1367 -0.8321,0.1367 -0.47134,0 -0.89191,-0.1107 -1.2617,-0.3321 C 8.38021,15.6849 8.08854,15.3802 7.875,14.9922 7.66146,14.6042 7.55469,14.1615 7.55469,13.6641 7.55208,13.1276 7.67578,12.6497 7.92578,12.2305 8.17578,11.8112 8.52474,11.4831 8.97266,11.2461 9.42318,11.0065 9.94661,10.888 10.543,10.8906 Z m 0.0117,1.3281 c -0.263,0 -0.4974,0.0625 -0.70314,0.1876 -0.20312,0.1249 -0.36458,0.2929 -0.48437,0.5039 -0.11719,0.2109 -0.17448,0.4466 -0.17188,0.707 0,0.263 0.05729,0.5 0.17188,0.7109 0.11719,0.2084 0.27604,0.375 0.47656,0.5 0.20315,0.1224 0.43485,0.1836 0.69535,0.1836 0.1953,0 0.3763,-0.0364 0.5429,-0.1094 0.1667,-0.0729 0.3112,-0.1731 0.4336,-0.3007 0.125,-0.1302 0.2227,-0.28 0.293,-0.4493 0.0703,-0.1692 0.1055,-0.3489 0.1055,-0.539 C 11.9115,13.3607 11.8516,13.1289 11.7344,12.918 11.6172,12.707 11.4557,12.5378 11.25,12.4102 11.0443,12.2826 10.8125,12.2187 10.5547,12.2187 Z M 18.3906,11 v 8 h -1.6914 v -6.3945 h -0.0469 l -1.832,1.1484 v -1.5 L 16.8008,11 Z"
     fill="#f4f4f4"
     id="path6" />
</svg>
