<?xml version="1.0" encoding="UTF-8" standalone="no"?>
<svg
   width="28"
   height="28"
   viewBox="0 0 28 28"
   fill="none"
   version="1.1"
   id="svg289"
   xmlns="http://www.w3.org/2000/svg"
   xmlns:svg="http://www.w3.org/2000/svg">
  <defs
     id="defs293" />
  <rect
     x="-9.5992498"
     y="12.013469"
     width="16.3701"
     height="16.3701"
     transform="rotate(-45)"
     fill="#228126"
     stroke="#124214"
     id="rect285" />
  <path
     d="M 10.5043,11.2727 V 20 H 8.65909 V 13.0241 H 8.60795 L 6.60938,14.277 v -1.6364 l 2.16051,-1.3679 z m 5.4961,8.9191 c -0.733,-0.0029 -1.3637,-0.1833 -1.8921,-0.5412 -0.5256,-0.358 -0.9304,-0.8765 -1.2145,-1.5554 -0.2812,-0.679 -0.4204,-1.4958 -0.4176,-2.4503 0,-0.9517 0.1406,-1.7628 0.4219,-2.4333 0.2841,-0.6704 0.6889,-1.1804 1.2145,-1.5298 0.5284,-0.3523 1.1576,-0.5284 1.8878,-0.5284 0.7301,0 1.3579,0.1761 1.8835,0.5284 0.5284,0.3523 0.9346,0.8637 1.2187,1.5341 0.2841,0.6676 0.4247,1.4773 0.4219,2.429 0,0.9574 -0.142,1.7756 -0.4261,2.4545 -0.2813,0.679 -0.6847,1.1975 -1.2103,1.5554 -0.5255,0.358 -1.1548,0.537 -1.8877,0.537 z m 0,-1.5299 c 0.5,0 0.8991,-0.2514 1.1974,-0.7542 0.2983,-0.5029 0.446,-1.2571 0.4432,-2.2628 0,-0.6619 -0.0682,-1.2131 -0.2046,-1.6534 -0.1335,-0.4404 -0.3238,-0.7713 -0.571,-0.9929 -0.2443,-0.2216 -0.5327,-0.3324 -0.865,-0.3324 -0.4972,0 -0.8949,0.2486 -1.1932,0.7457 -0.2983,0.4972 -0.4489,1.2415 -0.4517,2.233 0,0.6704 0.0667,1.2301 0.2003,1.679 0.1363,0.446 0.3281,0.7812 0.5752,1.0056 0.2472,0.2216 0.537,0.3324 0.8694,0.3324 z"
     fill="#ffffff"
     id="path287" />
</svg>
