<?xml version="1.0" encoding="UTF-8" standalone="no"?>
<svg
   width="28"
   height="28"
   viewBox="0 0 28 28"
   fill="none"
   version="1.1"
   id="svg8"
   xmlns="http://www.w3.org/2000/svg"
   xmlns:svg="http://www.w3.org/2000/svg">
  <defs
     id="defs12" />
  <rect
     x="-9.5992498"
     y="12.013469"
     width="16.3701"
     height="16.3701"
     transform="rotate(-45)"
     fill="#228126"
     stroke="#124214"
     id="rect4" />
  <path
     d="M 10.5043,11.2727 V 20 H 8.65909 V 13.0241 H 8.60795 L 6.60938,14.277 v -1.6364 l 2.16051,-1.3679 z m 5.3,8.8466 c -0.6363,0 -1.2031,-0.1094 -1.7003,-0.3281 -0.4943,-0.2216 -0.8849,-0.5256 -1.1718,-0.9119 -0.2841,-0.3892 -0.4304,-0.8381 -0.4389,-1.3466 h 1.8579 c 0.0114,0.213 0.081,0.4005 0.2088,0.5625 0.1307,0.1591 0.304,0.2826 0.5199,0.3707 0.2159,0.0881 0.4588,0.1321 0.7287,0.1321 0.2812,0 0.5298,-0.0497 0.7457,-0.1491 0.2159,-0.0995 0.385,-0.2373 0.5071,-0.4134 0.1222,-0.1761 0.1833,-0.3793 0.1833,-0.6094 0,-0.2329 -0.0654,-0.4389 -0.196,-0.6179 -0.1279,-0.1818 -0.3125,-0.3238 -0.554,-0.4261 -0.2387,-0.1023 -0.5228,-0.1534 -0.8523,-0.1534 h -0.8139 v -1.3551 h 0.8139 c 0.2784,0 0.5241,-0.0483 0.7372,-0.1449 0.2159,-0.0966 0.3835,-0.2301 0.5029,-0.4006 0.1193,-0.1733 0.1789,-0.375 0.1789,-0.6051 0,-0.2187 -0.0525,-0.4105 -0.1576,-0.5753 -0.1023,-0.1676 -0.2472,-0.2983 -0.4347,-0.392 -0.1847,-0.0938 -0.4006,-0.1406 -0.6477,-0.1406 -0.25,0 -0.4787,0.0454 -0.6861,0.1363 -0.2074,0.0881 -0.3736,0.2145 -0.4986,0.3793 -0.125,0.1648 -0.1917,0.3579 -0.2003,0.5795 H 12.668 c 0.0085,-0.5028 0.152,-0.946 0.4304,-1.3295 0.2784,-0.3835 0.6534,-0.6833 1.125,-0.8992 0.4744,-0.2187 1.0099,-0.3281 1.6065,-0.3281 0.6023,0 1.1293,0.1094 1.581,0.3281 0.4517,0.2188 0.8025,0.5142 1.0525,0.8864 0.2529,0.3693 0.3779,0.7841 0.375,1.2443 0.0029,0.4887 -0.1491,0.8963 -0.4559,1.223 -0.304,0.3267 -0.7003,0.5341 -1.189,0.6222 v 0.0682 c 0.6421,0.0824 1.1307,0.3054 1.4659,0.669 0.3381,0.3608 0.5057,0.8125 0.5029,1.3551 0.0028,0.4972 -0.1406,0.9389 -0.4304,1.3253 -0.2869,0.3864 -0.6832,0.6903 -1.1889,0.9119 -0.5057,0.2216 -1.0853,0.3324 -1.7387,0.3324 z"
     fill="#ffffff"
     id="path6" />
</svg>
