<?xml version="1.0" encoding="UTF-8" standalone="no"?>
<svg
   width="28"
   height="28"
   viewBox="0 0 28 28"
   fill="none"
   version="1.1"
   id="svg8"
   xmlns="http://www.w3.org/2000/svg"
   xmlns:svg="http://www.w3.org/2000/svg">
  <defs
     id="defs12" />
  <rect
     x="-9.5992498"
     y="12.013469"
     width="16.3701"
     height="16.3701"
     transform="rotate(-45)"
     fill="#228126"
     stroke="#124214"
     id="rect4" />
  <path
     d="M 10.5043,11.2727 V 20 H 8.65909 V 13.0241 H 8.60795 L 6.60938,14.277 v -1.6364 l 2.16051,-1.3679 z m 5.2319,-0.1193 c 0.4488,0 0.8806,0.0753 1.2954,0.2259 0.4176,0.1505 0.7898,0.3906 1.1165,0.7201 0.3295,0.3296 0.5895,0.7671 0.7798,1.3125 0.1932,0.5426 0.2912,1.2088 0.294,1.9986 0,0.7415 -0.0838,1.4034 -0.2514,1.9858 -0.1647,0.5796 -0.402,1.0725 -0.7116,1.4787 -0.3097,0.4062 -0.6833,0.7159 -1.1208,0.929 -0.4375,0.2102 -0.9261,0.3153 -1.4659,0.3153 -0.5824,0 -1.0966,-0.1122 -1.5426,-0.3366 -0.446,-0.2273 -0.8054,-0.5355 -1.0781,-0.9247 -0.2699,-0.3921 -0.4332,-0.8324 -0.4901,-1.3211 h 1.8196 c 0.0711,0.3182 0.2202,0.5654 0.4475,0.7415 0.2273,0.1733 0.5085,0.26 0.8437,0.26 0.5682,0 1,-0.2472 1.2955,-0.7415 0.2954,-0.4972 0.4446,-1.1776 0.4474,-2.0412 h -0.0596 c -0.1307,0.2557 -0.3068,0.4758 -0.5284,0.6605 -0.2216,0.1818 -0.4759,0.3224 -0.7628,0.4219 -0.2841,0.0994 -0.5867,0.1491 -0.9077,0.1491 -0.5142,0 -0.973,-0.1207 -1.3764,-0.3622 -0.4034,-0.2415 -0.7216,-0.5739 -0.9546,-0.9972 -0.2329,-0.4233 -0.3494,-0.9062 -0.3494,-1.4488 -0.0028,-0.5852 0.1321,-1.1066 0.4048,-1.5639 0.2728,-0.4574 0.6534,-0.8154 1.1421,-1.0739 0.4915,-0.2614 1.0625,-0.3906 1.7131,-0.3878 z m 0.0127,1.4489 c -0.2869,0 -0.5426,0.0682 -0.767,0.2045 -0.2216,0.1364 -0.3977,0.3196 -0.5284,0.5497 -0.1279,0.2301 -0.1904,0.4872 -0.1875,0.7713 0,0.287 0.0625,0.5455 0.1875,0.7756 0.1278,0.2273 0.3011,0.4091 0.5199,0.5455 0.2216,0.1335 0.4744,0.2002 0.7585,0.2002 0.2131,0 0.4105,-0.0397 0.5923,-0.1193 0.1818,-0.0795 0.3395,-0.1889 0.473,-0.3281 0.1364,-0.142 0.2429,-0.3054 0.3196,-0.4901 0.0767,-0.1846 0.1151,-0.3806 0.1151,-0.588 -0.0029,-0.2756 -0.0682,-0.5284 -0.196,-0.7585 -0.1279,-0.2302 -0.304,-0.4148 -0.5284,-0.554 -0.2245,-0.1392 -0.4773,-0.2088 -0.7586,-0.2088 z"
     fill="#ffffff"
     id="path6" />
</svg>
