<?xml version="1.0" encoding="UTF-8" standalone="no"?>
<svg
   width="28"
   height="28"
   viewBox="0 0 28 28"
   fill="none"
   version="1.1"
   id="svg8"
   xmlns="http://www.w3.org/2000/svg"
   xmlns:svg="http://www.w3.org/2000/svg">
  <defs
     id="defs12" />
  <rect
     x="-9.5992498"
     y="12.013469"
     width="16.3701"
     height="16.3701"
     transform="rotate(-45)"
     fill="#228126"
     stroke="#124214"
     id="rect4" />
  <path
     d="M 6.70739,19 V 17.6705 L 9.81392,14.794 c 0.26418,-0.2556 0.48578,-0.4858 0.66478,-0.6903 0.1818,-0.2046 0.3196,-0.4048 0.4133,-0.6009 0.0938,-0.1988 0.1407,-0.4133 0.1407,-0.6434 0,-0.2557 -0.0583,-0.4759 -0.1747,-0.6605 -0.1165,-0.1875 -0.2756,-0.331 -0.4773,-0.4304 -0.2017,-0.1023 -0.43042,-0.1534 -0.6861,-0.1534 -0.26704,0 -0.5,0.0539 -0.69886,0.1619 -0.19886,0.1079 -0.35227,0.2628 -0.46023,0.4645 -0.10795,0.2017 -0.16193,0.4417 -0.16193,0.7201 H 6.62216 c 0,-0.571 0.12926,-1.0667 0.38778,-1.4872 0.25853,-0.4204 0.62074,-0.7457 1.08665,-0.9758 0.46591,-0.2301 1.00284,-0.3452 1.6108,-0.3452 0.62501,0 1.16901,0.1108 1.63211,0.3324 0.4659,0.2187 0.8281,0.5227 1.0866,0.9119 0.2586,0.3892 0.3878,0.8353 0.3878,1.3381 0,0.3295 -0.0653,0.6548 -0.196,0.9758 -0.1278,0.3211 -0.3565,0.6776 -0.6861,1.0696 -0.3295,0.3893 -0.794,0.8566 -1.3934,1.402 l -1.2742,1.2486 v 0.0597 H 12.929 V 19 Z m 10.98051,0.1918 c -0.733,-0.0029 -1.3637,-0.1833 -1.8921,-0.5412 -0.5256,-0.358 -0.9304,-0.8765 -1.2145,-1.5554 -0.2812,-0.679 -0.4204,-1.4958 -0.4176,-2.4503 0,-0.9517 0.1406,-1.7628 0.4219,-2.4333 0.2841,-0.6704 0.6889,-1.1804 1.2145,-1.5298 0.5284,-0.3523 1.1576,-0.5284 1.8878,-0.5284 0.7301,0 1.3579,0.1761 1.8835,0.5284 0.5284,0.3523 0.9346,0.8637 1.2187,1.5341 0.2841,0.6676 0.4247,1.4773 0.4219,2.429 0,0.9574 -0.142,1.7756 -0.4261,2.4545 -0.2813,0.679 -0.6847,1.1975 -1.2103,1.5554 -0.5255,0.358 -1.1548,0.537 -1.8877,0.537 z m 0,-1.5299 c 0.5,0 0.8991,-0.2514 1.1974,-0.7542 0.2983,-0.5029 0.446,-1.2571 0.4432,-2.2628 0,-0.6619 -0.0682,-1.2131 -0.2046,-1.6534 -0.1335,-0.4404 -0.3238,-0.7713 -0.571,-0.9929 -0.2443,-0.2216 -0.5327,-0.3324 -0.865,-0.3324 -0.4972,0 -0.8949,0.2486 -1.1932,0.7457 -0.2983,0.4972 -0.4489,1.2415 -0.4517,2.233 0,0.6704 0.0667,1.2301 0.2003,1.679 0.1363,0.446 0.3281,0.7812 0.5752,1.0056 0.2472,0.2216 0.537,0.3324 0.8694,0.3324 z"
     fill="#ffffff"
     id="path6" />
</svg>
