<?xml version="1.0" encoding="UTF-8" standalone="no"?>
<svg
   width="28"
   height="28"
   viewBox="0 0 28 28"
   fill="none"
   version="1.1"
   id="svg8"
   xmlns="http://www.w3.org/2000/svg"
   xmlns:svg="http://www.w3.org/2000/svg">
  <defs
     id="defs12" />
  <rect
     x="-9.5992498"
     y="12.013469"
     width="16.3701"
     height="16.3701"
     transform="rotate(-45)"
     fill="#6c1fb3"
     stroke="#350f58"
     id="rect4" />
  <path
     d="M 6.52734,17.5938 V 16.2617 L 9.86719,11 h 1.14841 v 1.8437 h -0.6797 l -2.10543,3.3321 v 0.0625 h 4.74613 v 1.3555 z M 10.3672,19 v -1.8125 l 0.0312,-0.5898 V 11 h 1.586 v 8 z m 6.6933,0.1094 c -0.5833,0 -1.1028,-0.1003 -1.5585,-0.3008 -0.4532,-0.2031 -0.8112,-0.4818 -1.0743,-0.8359 -0.2604,-0.3568 -0.3945,-0.7683 -0.4023,-1.2344 h 1.7031 c 0.0104,0.1953 0.0742,0.3672 0.1914,0.5156 0.1198,0.1458 0.2787,0.2591 0.4766,0.3399 0.1979,0.0807 0.4206,0.121 0.668,0.121 0.2578,0 0.4856,-0.0455 0.6835,-0.1367 0.198,-0.0911 0.3529,-0.2174 0.4649,-0.3789 0.112,-0.1614 0.168,-0.3476 0.168,-0.5586 0,-0.2135 -0.0599,-0.4023 -0.1797,-0.5664 C 18.084,15.9076 17.9147,15.7773 17.6934,15.6836 17.4746,15.5898 17.2142,15.543 16.9121,15.543 H 16.166 v -1.2422 h 0.7461 c 0.2552,0 0.4805,-0.0443 0.6758,-0.1328 0.1979,-0.0886 0.3516,-0.211 0.4609,-0.3672 0.1094,-0.1589 0.1641,-0.3438 0.1641,-0.5547 0,-0.2005 -0.0482,-0.3763 -0.1445,-0.5274 -0.0938,-0.1536 -0.2266,-0.2734 -0.3985,-0.3593 -0.1692,-0.086 -0.3672,-0.1289 -0.5937,-0.1289 -0.2292,0 -0.4388,0.0416 -0.6289,0.125 -0.1901,0.0807 -0.3425,0.1966 -0.4571,0.3476 -0.1145,0.1511 -0.1757,0.3281 -0.1836,0.5313 h -1.6211 c 0.0079,-0.461 0.1394,-0.8672 0.3946,-1.2188 0.2552,-0.3515 0.5989,-0.6263 1.0312,-0.8242 0.4349,-0.2005 0.9258,-0.3008 1.4727,-0.3008 0.5521,0 1.0351,0.1003 1.4492,0.3008 0.4141,0.2005 0.7357,0.4714 0.9648,0.8125 0.2318,0.3385 0.3464,0.7188 0.3438,1.1406 0.0026,0.4479 -0.1367,0.8216 -0.418,1.1211 -0.2786,0.2995 -0.6419,0.4896 -1.0898,0.5703 v 0.0625 c 0.5885,0.0756 1.0364,0.28 1.3437,0.6133 0.3099,0.3307 0.4636,0.7448 0.461,1.2422 0.0026,0.4557 -0.1289,0.8607 -0.3946,1.2149 -0.263,0.3541 -0.6263,0.6328 -1.0898,0.8359 -0.4635,0.2031 -0.9948,0.3047 -1.5938,0.3047 z"
     fill="#fffffa"
     id="path6" />
</svg>
