<?xml version="1.0" encoding="UTF-8" standalone="no"?>
<svg
   width="28"
   height="28"
   viewBox="0 0 28 28"
   fill="none"
   version="1.1"
   id="svg8"
   xmlns="http://www.w3.org/2000/svg"
   xmlns:svg="http://www.w3.org/2000/svg">
  <defs
     id="defs12" />
  <rect
     x="-9.5992498"
     y="12.013469"
     width="16.3701"
     height="16.3701"
     transform="rotate(-45)"
     fill="#6c1fb3"
     stroke="#350f58"
     id="rect4" />
  <path
     d="M 6.52734,17.5938 V 16.2617 L 9.86719,11 h 1.14841 v 1.8437 h -0.6797 l -2.10543,3.3321 v 0.0625 h 4.74613 v 1.3555 z M 10.3672,19 v -1.8125 l 0.0312,-0.5898 V 11 h 1.586 v 8 z m 6.7207,0.1094 c -0.6016,0 -1.1367,-0.0977 -1.6055,-0.293 -0.4661,-0.1979 -0.832,-0.4674 -1.0976,-0.8086 -0.2657,-0.3411 -0.3985,-0.7279 -0.3985,-1.1601 0,-0.3334 0.0755,-0.6394 0.2266,-0.918 0.1536,-0.2813 0.362,-0.5143 0.625,-0.6992 0.263,-0.1875 0.5573,-0.3073 0.8828,-0.3594 v -0.0547 c -0.4271,-0.0859 -0.7734,-0.293 -1.0391,-0.6211 -0.2656,-0.3307 -0.3984,-0.7148 -0.3984,-1.1523 0,-0.4141 0.1211,-0.7826 0.3633,-1.1055 0.2422,-0.3255 0.5742,-0.5807 0.9961,-0.7656 0.4245,-0.1875 0.9062,-0.2813 1.4453,-0.2813 0.5391,0 1.0195,0.0938 1.4414,0.2813 0.4245,0.1875 0.7578,0.444 1,0.7695 0.2422,0.3229 0.3646,0.6901 0.3672,1.1016 -0.0026,0.4401 -0.138,0.8242 -0.4063,1.1523 -0.2682,0.3281 -0.6119,0.5352 -1.0312,0.6211 v 0.0547 c 0.3203,0.0521 0.6107,0.1719 0.8711,0.3594 0.263,0.1849 0.4713,0.4179 0.625,0.6992 0.1562,0.2786 0.2357,0.5846 0.2383,0.918 -0.0026,0.4322 -0.1368,0.819 -0.4024,1.1601 -0.2656,0.3412 -0.6328,0.6107 -1.1015,0.8086 -0.4662,0.1953 -1,0.293 -1.6016,0.293 z m 0,-1.2422 c 0.2682,0 0.5026,-0.0482 0.7031,-0.1445 0.2005,-0.099 0.3568,-0.2344 0.4688,-0.4063 0.1145,-0.1745 0.1718,-0.375 0.1718,-0.6016 0,-0.2317 -0.0586,-0.4362 -0.1757,-0.6132 -0.1172,-0.1797 -0.2761,-0.3203 -0.4766,-0.4219 -0.2005,-0.1042 -0.431,-0.1563 -0.6914,-0.1563 -0.2578,0 -0.4883,0.0521 -0.6914,0.1563 -0.2031,0.1016 -0.3633,0.2422 -0.4805,0.4219 -0.1146,0.177 -0.1719,0.3815 -0.1719,0.6132 0,0.2266 0.056,0.4271 0.168,0.6016 0.112,0.1719 0.2695,0.3073 0.4727,0.4063 0.2031,0.0963 0.4375,0.1445 0.7031,0.1445 z m 0,-3.5742 c 0.2239,0 0.4232,-0.0456 0.5976,-0.1368 0.1745,-0.0911 0.3112,-0.2174 0.4102,-0.3789 0.099,-0.1614 0.1484,-0.3476 0.1484,-0.5586 0,-0.2083 -0.0494,-0.3906 -0.1484,-0.5468 -0.099,-0.1589 -0.2344,-0.2826 -0.4062,-0.3711 -0.1719,-0.0912 -0.3724,-0.1367 -0.6016,-0.1367 -0.2266,0 -0.4271,0.0455 -0.6016,0.1367 -0.1745,0.0885 -0.3112,0.2122 -0.4101,0.3711 -0.0964,0.1562 -0.1446,0.3385 -0.1446,0.5468 0,0.211 0.0495,0.3972 0.1485,0.5586 0.0989,0.1615 0.2357,0.2878 0.4101,0.3789 0.1745,0.0912 0.3737,0.1368 0.5977,0.1368 z"
     fill="#fffffa"
     id="path6" />
</svg>
