<?xml version="1.0" encoding="UTF-8" standalone="no"?>
<svg
   width="28"
   height="28"
   viewBox="0 0 28 28"
   fill="none"
   version="1.1"
   id="svg8"
   xmlns="http://www.w3.org/2000/svg"
   xmlns:svg="http://www.w3.org/2000/svg">
  <defs
     id="defs12" />
  <rect
     x="-9.5992498"
     y="12.013469"
     width="16.3701"
     height="16.3701"
     transform="rotate(-45)"
     fill="#928300"
     stroke="#5f5101"
     id="rect4" />
  <path
     d="m 9.57031,19.1094 c -0.55208,0 -1.04427,-0.1016 -1.47656,-0.3047 C 7.66406,18.6016 7.32292,18.3216 7.07031,17.9648 6.81771,17.6081 6.6862,17.1992 6.67578,16.7383 h 1.64063 c 0.01823,0.3099 0.14843,0.5612 0.39062,0.7539 0.24219,0.1927 0.52995,0.289 0.86328,0.289 0.26563,0 0.49999,-0.0585 0.70309,-0.1757 0.2058,-0.1198 0.3659,-0.2852 0.4805,-0.4961 0.1172,-0.2136 0.1758,-0.4584 0.1758,-0.7344 0,-0.2813 -0.0599,-0.5286 -0.1797,-0.7422 -0.1172,-0.2135 -0.2799,-0.3802 -0.4883,-0.5 -0.2083,-0.1198 -0.4466,-0.181 -0.71482,-0.1836 -0.23438,0 -0.46224,0.0482 -0.6836,0.1445 -0.21875,0.0964 -0.38932,0.2279 -0.51172,0.3946 L 6.84766,15.2188 7.22656,11 h 4.89064 v 1.3828 H 8.62109 l -0.20703,2.0039 h 0.04688 c 0.14062,-0.1979 0.35286,-0.362 0.63672,-0.4922 0.28385,-0.1302 0.60156,-0.1953 0.95314,-0.1953 0.4818,0 0.9114,0.1133 1.289,0.3399 0.3776,0.2265 0.6758,0.5377 0.8946,0.9336 0.2187,0.3932 0.3268,0.8463 0.3242,1.3593 0.0026,0.5391 -0.1224,1.0183 -0.375,1.4375 -0.25,0.4167 -0.6003,0.7448 -1.0508,0.9844 -0.4479,0.237 -0.9687,0.3555 -1.56249,0.3555 z m 7.30469,0.0664 c -0.6719,-0.0026 -1.25,-0.168 -1.7344,-0.4961 -0.4817,-0.3281 -0.8528,-0.8034 -1.1133,-1.4258 -0.2578,-0.6224 -0.3854,-1.3711 -0.3828,-2.2461 0,-0.8724 0.1289,-1.6159 0.3868,-2.2305 0.2604,-0.6145 0.6315,-1.082 1.1132,-1.4023 0.4844,-0.3229 1.0612,-0.4844 1.7305,-0.4844 0.6693,0 1.2448,0.1615 1.7266,0.4844 0.4843,0.3229 0.8567,0.7917 1.1172,1.4062 0.2604,0.612 0.3893,1.3542 0.3867,2.2266 0,0.8776 -0.1302,1.6276 -0.3907,2.25 -0.2578,0.6224 -0.6276,1.0977 -1.1093,1.4258 -0.4818,0.3281 -1.0586,0.4922 -1.7305,0.4922 z m 0,-1.4024 c 0.4583,0 0.8242,-0.2304 1.0977,-0.6914 0.2734,-0.4609 0.4088,-1.1523 0.4062,-2.0742 0,-0.6068 -0.0625,-1.112 -0.1875,-1.5156 -0.1224,-0.4037 -0.2969,-0.707 -0.5234,-0.9102 -0.224,-0.2031 -0.4883,-0.3047 -0.793,-0.3047 -0.4557,0 -0.8203,0.2279 -1.0937,0.6836 -0.2735,0.4558 -0.4115,1.1381 -0.4141,2.0469 0,0.6146 0.0612,1.1276 0.1836,1.5391 0.125,0.4088 0.3008,0.7161 0.5273,0.9218 0.2266,0.2032 0.4922,0.3047 0.7969,0.3047 z"
     fill="#f4f4f4"
     id="path6" />
</svg>
