<?xml version="1.0" encoding="UTF-8" standalone="no"?>
<svg
   width="28"
   height="28"
   viewBox="0 0 28 28"
   fill="none"
   version="1.1"
   id="svg8"
   xmlns="http://www.w3.org/2000/svg"
   xmlns:svg="http://www.w3.org/2000/svg">
  <defs
     id="defs12" />
  <rect
     x="-9.5992498"
     y="12.013469"
     width="16.3701"
     height="16.3701"
     transform="rotate(-45)"
     fill="#928300"
     stroke="#5f5101"
     id="rect4" />
  <path
     d="m 10.5703,20.1094 c -0.5521,0 -1.04426,-0.1016 -1.47655,-0.3047 C 8.66406,19.6016 8.32292,19.3216 8.07031,18.9648 7.81771,18.6081 7.6862,18.1992 7.67578,17.7383 h 1.64063 c 0.01823,0.3099 0.14843,0.5612 0.39062,0.7539 0.24219,0.1927 0.52997,0.289 0.86327,0.289 0.2656,0 0.5,-0.0585 0.7031,-0.1757 0.2058,-0.1198 0.3659,-0.2852 0.4805,-0.4961 0.1172,-0.2136 0.1758,-0.4584 0.1758,-0.7344 0,-0.2813 -0.0599,-0.5286 -0.1797,-0.7422 -0.1172,-0.2135 -0.2799,-0.3802 -0.4883,-0.5 -0.2083,-0.1198 -0.4466,-0.181 -0.7148,-0.1836 -0.2344,0 -0.4623,0.0482 -0.68362,0.1445 -0.21875,0.0964 -0.38932,0.2279 -0.51172,0.3946 L 7.84766,16.2188 8.22656,12 h 4.89064 v 1.3828 H 9.62109 l -0.20703,2.0039 h 0.04688 c 0.14062,-0.1979 0.35286,-0.362 0.63676,-0.4922 0.2838,-0.1302 0.6015,-0.1953 0.9531,-0.1953 0.4818,0 0.9114,0.1133 1.289,0.3399 0.3776,0.2265 0.6758,0.5377 0.8946,0.9336 0.2187,0.3932 0.3268,0.8463 0.3242,1.3593 0.0026,0.5391 -0.1224,1.0183 -0.375,1.4375 -0.25,0.4167 -0.6003,0.7448 -1.0508,0.9844 -0.4479,0.237 -0.9687,0.3555 -1.5625,0.3555 z M 18.2188,12 v 8 h -1.6915 v -6.3945 h -0.0468 l -1.8321,1.1484 v -1.5 L 16.6289,12 Z"
     fill="#f4f4f4"
     id="path6" />
</svg>
