<?xml version="1.0" encoding="UTF-8" standalone="no"?>
<svg
   width="28"
   height="28"
   viewBox="0 0 28 28"
   fill="none"
   version="1.1"
   id="svg8"
   xmlns="http://www.w3.org/2000/svg"
   xmlns:svg="http://www.w3.org/2000/svg">
  <defs
     id="defs12" />
  <rect
     x="-9.5992498"
     y="12.013469"
     width="16.3701"
     height="16.3701"
     transform="rotate(-45)"
     fill="#0f6fc2"
     stroke="#03345f"
     id="rect4" />
  <path
     d="M 7.96484,19 11.2813,12.4375 V 12.3828 H 7.41797 V 11 h 5.61333 v 1.4023 L 9.71094,19 Z m 9.19046,0.1758 c -0.6719,-0.0026 -1.25,-0.168 -1.7344,-0.4961 -0.4818,-0.3281 -0.8529,-0.8034 -1.1133,-1.4258 -0.2578,-0.6224 -0.3854,-1.3711 -0.3828,-2.2461 0,-0.8724 0.1289,-1.6159 0.3867,-2.2305 0.2604,-0.6145 0.6315,-1.082 1.1133,-1.4023 0.4844,-0.3229 1.0612,-0.4844 1.7305,-0.4844 0.6692,0 1.2448,0.1615 1.7265,0.4844 0.4844,0.3229 0.8568,0.7917 1.1172,1.4062 0.2604,0.612 0.3893,1.3542 0.3867,2.2266 0,0.8776 -0.1302,1.6276 -0.3906,2.25 -0.2578,0.6224 -0.6276,1.0977 -1.1094,1.4258 -0.4817,0.3281 -1.0586,0.4922 -1.7304,0.4922 z m 0,-1.4024 c 0.4583,0 0.8242,-0.2304 1.0976,-0.6914 0.2735,-0.4609 0.4089,-1.1523 0.4063,-2.0742 0,-0.6068 -0.0625,-1.112 -0.1875,-1.5156 -0.1224,-0.4037 -0.2969,-0.707 -0.5235,-0.9102 -0.2239,-0.2031 -0.4882,-0.3047 -0.7929,-0.3047 -0.4558,0 -0.8203,0.2279 -1.0938,0.6836 -0.2734,0.4558 -0.4114,1.1381 -0.414,2.0469 0,0.6146 0.0612,1.1276 0.1836,1.5391 0.125,0.4088 0.3007,0.7161 0.5273,0.9218 0.2266,0.2032 0.4922,0.3047 0.7969,0.3047 z"
     fill="#f4f4f4"
     id="path6" />
</svg>
