<?xml version="1.0" encoding="UTF-8" standalone="no"?>
<svg
   width="28"
   height="28"
   viewBox="0 0 28 28"
   fill="none"
   version="1.1"
   id="svg8"
   xmlns="http://www.w3.org/2000/svg"
   xmlns:svg="http://www.w3.org/2000/svg">
  <defs
     id="defs12" />
  <rect
     x="-9.5992498"
     y="12.013469"
     width="16.3701"
     height="16.3701"
     transform="rotate(-45)"
     fill="#7c7a7a"
     stroke="#494949"
     id="rect4" />
  <path
     d="m 10.6328,19.1094 c -0.6015,0 -1.13671,-0.0977 -1.60546,-0.293 C 8.5612,18.6185 8.19531,18.349 7.92969,18.0078 7.66406,17.6667 7.53125,17.2799 7.53125,16.8477 c 0,-0.3334 0.07552,-0.6394 0.22656,-0.918 0.15365,-0.2813 0.36198,-0.5143 0.625,-0.6992 C 8.64583,15.043 8.9401,14.9232 9.26563,14.8711 V 14.8164 C 8.83854,14.7305 8.49219,14.5234 8.22656,14.1953 7.96094,13.8646 7.82813,13.4805 7.82813,13.043 c 0,-0.4141 0.12109,-0.7826 0.36328,-1.1055 0.24218,-0.3255 0.57422,-0.5807 0.99609,-0.7656 0.42448,-0.1875 0.9063,-0.2813 1.4453,-0.2813 0.5391,0 1.0195,0.0938 1.4414,0.2813 0.4245,0.1875 0.7578,0.444 1,0.7695 0.2422,0.3229 0.3646,0.6901 0.3672,1.1016 -0.0026,0.4401 -0.138,0.8242 -0.4062,1.1523 -0.2683,0.3281 -0.612,0.5352 -1.0313,0.6211 v 0.0547 c 0.3203,0.0521 0.6107,0.1719 0.8711,0.3594 0.263,0.1849 0.4714,0.4179 0.625,0.6992 0.1563,0.2786 0.2357,0.5846 0.2383,0.918 -0.0026,0.4322 -0.1367,0.819 -0.4024,1.1601 -0.2656,0.3412 -0.6328,0.6107 -1.1015,0.8086 -0.4662,0.1953 -1,0.293 -1.6016,0.293 z m 0,-1.2422 c 0.2682,0 0.5026,-0.0482 0.7031,-0.1445 0.2006,-0.099 0.3568,-0.2344 0.4688,-0.4063 0.1146,-0.1745 0.1719,-0.375 0.1719,-0.6016 0,-0.2317 -0.0586,-0.4362 -0.1758,-0.6132 -0.1172,-0.1797 -0.2761,-0.3203 -0.4766,-0.4219 -0.2005,-0.1042 -0.431,-0.1563 -0.6914,-0.1563 -0.2578,0 -0.4883,0.0521 -0.69139,0.1563 -0.20313,0.1016 -0.36328,0.2422 -0.48047,0.4219 -0.11459,0.177 -0.17188,0.3815 -0.17188,0.6132 0,0.2266 0.05599,0.4271 0.16797,0.6016 0.11198,0.1719 0.26953,0.3073 0.47266,0.4063 0.20311,0.0963 0.43751,0.1445 0.70311,0.1445 z m 0,-3.5742 c 0.224,0 0.4232,-0.0456 0.5977,-0.1368 0.1744,-0.0911 0.3112,-0.2174 0.4101,-0.3789 0.099,-0.1614 0.1485,-0.3476 0.1485,-0.5586 0,-0.2083 -0.0495,-0.3906 -0.1485,-0.5468 -0.0989,-0.1589 -0.2343,-0.2826 -0.4062,-0.3711 -0.1719,-0.0912 -0.3724,-0.1367 -0.6016,-0.1367 -0.2265,0 -0.4271,0.0455 -0.6015,0.1367 -0.17453,0.0885 -0.31125,0.2122 -0.41021,0.3711 -0.09635,0.1562 -0.14453,0.3385 -0.14453,0.5468 0,0.211 0.04948,0.3972 0.14844,0.5586 0.09896,0.1615 0.23568,0.2878 0.4102,0.3789 0.1744,0.0912 0.3737,0.1368 0.5976,0.1368 z M 18.4014,11 v 8 H 16.71 v -6.3945 h -0.0469 l -1.832,1.1484 v -1.5 L 16.8115,11 Z"
     fill="#f4f4f4"
     id="path6" />
</svg>
