<?xml version="1.0" encoding="UTF-8" standalone="no"?>
<svg
   width="28"
   height="28"
   viewBox="0 0 28 28"
   fill="none"
   version="1.1"
   id="svg8"
   xmlns="http://www.w3.org/2000/svg"
   xmlns:svg="http://www.w3.org/2000/svg">
  <defs
     id="defs12" />
  <rect
     x="-9.5992498"
     y="12.013469"
     width="16.3701"
     height="16.3701"
     transform="rotate(-45)"
     fill="#7c7a7a"
     stroke="#494949"
     id="rect4" />
  <path
     d="m 9.63281,19.1094 c -0.60156,0 -1.13672,-0.0977 -1.60547,-0.293 C 7.5612,18.6185 7.19531,18.349 6.92969,18.0078 6.66406,17.6667 6.53125,17.2799 6.53125,16.8477 c 0,-0.3334 0.07552,-0.6394 0.22656,-0.918 0.15365,-0.2813 0.36198,-0.5143 0.625,-0.6992 C 7.64583,15.043 7.9401,14.9232 8.26563,14.8711 V 14.8164 C 7.83854,14.7305 7.49219,14.5234 7.22656,14.1953 6.96094,13.8646 6.82813,13.4805 6.82813,13.043 c 0,-0.4141 0.12109,-0.7826 0.36328,-1.1055 0.24218,-0.3255 0.57422,-0.5807 0.99609,-0.7656 0.42448,-0.1875 0.90625,-0.2813 1.44531,-0.2813 0.53909,0 1.01949,0.0938 1.44139,0.2813 0.4245,0.1875 0.7578,0.444 1,0.7695 0.2422,0.3229 0.3646,0.6901 0.3672,1.1016 -0.0026,0.4401 -0.138,0.8242 -0.4062,1.1523 -0.2683,0.3281 -0.612,0.5352 -1.0313,0.6211 v 0.0547 c 0.3203,0.0521 0.6107,0.1719 0.8711,0.3594 0.263,0.1849 0.4714,0.4179 0.625,0.6992 0.1563,0.2786 0.2357,0.5846 0.2383,0.918 -0.0026,0.4322 -0.1367,0.819 -0.4024,1.1601 -0.2656,0.3412 -0.6328,0.6107 -1.1015,0.8086 -0.4662,0.1953 -1,0.293 -1.60159,0.293 z m 0,-1.2422 c 0.26823,0 0.50259,-0.0482 0.70309,-0.1445 0.2006,-0.099 0.3568,-0.2344 0.4688,-0.4063 0.1146,-0.1745 0.1719,-0.375 0.1719,-0.6016 0,-0.2317 -0.0586,-0.4362 -0.1758,-0.6132 -0.1172,-0.1797 -0.2761,-0.3203 -0.4766,-0.4219 -0.2005,-0.1042 -0.43097,-0.1563 -0.69139,-0.1563 -0.25781,0 -0.48828,0.0521 -0.6914,0.1563 -0.20313,0.1016 -0.36328,0.2422 -0.48047,0.4219 -0.11459,0.177 -0.17188,0.3815 -0.17188,0.6132 0,0.2266 0.05599,0.4271 0.16797,0.6016 0.11198,0.1719 0.26953,0.3073 0.47266,0.4063 0.20312,0.0963 0.4375,0.1445 0.70312,0.1445 z m 0,-3.5742 c 0.22396,0 0.42319,-0.0456 0.59769,-0.1368 0.1744,-0.0911 0.3112,-0.2174 0.4101,-0.3789 0.099,-0.1614 0.1485,-0.3476 0.1485,-0.5586 0,-0.2083 -0.0495,-0.3906 -0.1485,-0.5468 -0.0989,-0.1589 -0.2343,-0.2826 -0.4062,-0.3711 -0.1719,-0.0912 -0.37242,-0.1367 -0.60159,-0.1367 -0.22656,0 -0.42708,0.0455 -0.60156,0.1367 -0.17448,0.0885 -0.3112,0.2122 -0.41016,0.3711 -0.09635,0.1562 -0.14453,0.3385 -0.14453,0.5468 0,0.211 0.04948,0.3972 0.14844,0.5586 0.09896,0.1615 0.23568,0.2878 0.41016,0.3789 0.17448,0.0912 0.37369,0.1368 0.59765,0.1368 z m 7.24509,4.8164 c -0.5833,0 -1.1028,-0.1003 -1.5586,-0.3008 -0.4531,-0.2031 -0.8112,-0.4818 -1.0742,-0.8359 -0.2604,-0.3568 -0.3945,-0.7683 -0.4023,-1.2344 h 1.7031 c 0.0104,0.1953 0.0742,0.3672 0.1914,0.5156 0.1198,0.1458 0.2787,0.2591 0.4766,0.3399 0.1979,0.0807 0.4205,0.121 0.6679,0.121 0.2578,0 0.4857,-0.0455 0.6836,-0.1367 0.1979,-0.0911 0.3529,-0.2174 0.4649,-0.3789 0.112,-0.1614 0.1679,-0.3476 0.1679,-0.5586 0,-0.2135 -0.0599,-0.4023 -0.1796,-0.5664 C 17.9014,15.9076 17.7321,15.7773 17.5107,15.6836 17.292,15.5898 17.0316,15.543 16.7295,15.543 h -0.7461 v -1.2422 h 0.7461 c 0.2552,0 0.4805,-0.0443 0.6758,-0.1328 0.1979,-0.0886 0.3515,-0.211 0.4609,-0.3672 0.1094,-0.1589 0.1641,-0.3438 0.1641,-0.5547 0,-0.2005 -0.0482,-0.3763 -0.1446,-0.5274 -0.0937,-0.1536 -0.2265,-0.2734 -0.3984,-0.3593 -0.1693,-0.086 -0.3672,-0.1289 -0.5937,-0.1289 -0.2292,0 -0.4388,0.0416 -0.629,0.125 -0.1901,0.0807 -0.3424,0.1966 -0.457,0.3476 -0.1146,0.1511 -0.1758,0.3281 -0.1836,0.5313 h -1.6211 c 0.0078,-0.461 0.1394,-0.8672 0.3946,-1.2188 0.2552,-0.3515 0.5989,-0.6263 1.0312,-0.8242 0.4349,-0.2005 0.9258,-0.3008 1.4727,-0.3008 0.5521,0 1.0351,0.1003 1.4492,0.3008 0.414,0.2005 0.7357,0.4714 0.9648,0.8125 0.2318,0.3385 0.3464,0.7188 0.3438,1.1406 0.0026,0.4479 -0.1367,0.8216 -0.418,1.1211 -0.2786,0.2995 -0.6419,0.4896 -1.0898,0.5703 v 0.0625 c 0.5885,0.0756 1.0364,0.28 1.3437,0.6133 0.3099,0.3307 0.4636,0.7448 0.461,1.2422 0.0026,0.4557 -0.129,0.8607 -0.3946,1.2149 -0.263,0.3541 -0.6263,0.6328 -1.0898,0.8359 -0.4636,0.2031 -0.9948,0.3047 -1.5938,0.3047 z"
     fill="#f4f4f4"
     id="path6" />
</svg>
