<?xml version="1.0" encoding="UTF-8" standalone="no"?>
<svg
   width="28"
   height="28"
   viewBox="0 0 28 28"
   fill="none"
   version="1.1"
   id="svg8"
   xmlns="http://www.w3.org/2000/svg"
   xmlns:svg="http://www.w3.org/2000/svg">
  <defs
     id="defs12" />
  <rect
     x="-9.5992498"
     y="12.013469"
     width="16.3701"
     height="16.3701"
     transform="rotate(-45)"
     fill="#228126"
     stroke="#124214"
     id="rect4" />
  <path
     d="M 10.5043,11.2727 V 20 H 8.65909 V 13.0241 H 8.60795 L 6.60938,14.277 V 12.6406 L 8.76989,11.2727 Z M 12.5785,20 V 18.6705 L 15.685,15.794 c 0.2642,-0.2556 0.4858,-0.4858 0.6648,-0.6903 0.1818,-0.2046 0.3196,-0.4048 0.4133,-0.6009 0.0938,-0.1988 0.1407,-0.4133 0.1407,-0.6434 0,-0.2557 -0.0583,-0.4759 -0.1748,-0.6605 -0.1164,-0.1875 -0.2755,-0.331 -0.4772,-0.4304 -0.2017,-0.1023 -0.4304,-0.1534 -0.6861,-0.1534 -0.267,0 -0.5,0.0539 -0.6989,0.1619 -0.1988,0.1079 -0.3522,0.2628 -0.4602,0.4645 -0.1079,0.2017 -0.1619,0.4417 -0.1619,0.7201 h -1.7514 c 0,-0.571 0.1292,-1.0667 0.3877,-1.4872 0.2586,-0.4204 0.6208,-0.7457 1.0867,-0.9758 0.4659,-0.2301 1.0028,-0.3452 1.6108,-0.3452 0.625,0 1.169,0.1108 1.6321,0.3324 0.4659,0.2187 0.8281,0.5227 1.0866,0.9119 0.2586,0.3892 0.3878,0.8353 0.3878,1.3381 0,0.3295 -0.0653,0.6548 -0.196,0.9758 -0.1278,0.3211 -0.3565,0.6776 -0.6861,1.0696 -0.3295,0.3893 -0.794,0.8566 -1.3935,1.402 l -1.2741,1.2486 v 0.0597 h 3.6648 V 20 Z"
     fill="#ffffff"
     id="path6" />
</svg>
