<?xml version="1.0" encoding="UTF-8" standalone="no"?>
<svg
   width="28"
   height="28"
   viewBox="0 0 28 28"
   fill="none"
   version="1.1"
   id="svg8"
   xmlns="http://www.w3.org/2000/svg"
   xmlns:svg="http://www.w3.org/2000/svg">
  <defs
     id="defs12" />
  <rect
     x="-9.5992498"
     y="12.013469"
     width="16.3701"
     height="16.3701"
     transform="rotate(-45)"
     fill="#228126"
     stroke="#124214"
     id="rect4" />
  <path
     d="M 10.5043,11.2727 V 20 H 8.65909 V 13.0241 H 8.60795 L 6.60938,14.277 v -1.6364 l 2.16051,-1.3679 z m 5.3299,8.8466 c -0.6563,0 -1.2401,-0.1065 -1.7515,-0.3196 -0.5085,-0.2159 -0.9076,-0.5099 -1.1974,-0.8821 -0.2898,-0.3721 -0.4347,-0.794 -0.4347,-1.2656 0,-0.3636 0.0824,-0.6975 0.2472,-1.0014 0.1676,-0.3068 0.3949,-0.5611 0.6818,-0.7628 0.2869,-0.2046 0.608,-0.3352 0.9631,-0.3921 v -0.0596 c -0.4659,-0.0938 -0.8438,-0.3196 -1.1335,-0.6776 -0.2898,-0.3608 -0.4347,-0.7798 -0.4347,-1.2571 0,-0.4517 0.1321,-0.8537 0.3963,-1.2059 0.2642,-0.3552 0.6264,-0.6336 1.0867,-0.8353 0.463,-0.2045 0.9886,-0.3068 1.5767,-0.3068 0.588,0 1.1122,0.1023 1.5724,0.3068 0.4631,0.2046 0.8267,0.4844 1.0909,0.8395 0.2642,0.3523 0.3977,0.7529 0.4006,1.2017 -0.0029,0.4801 -0.1506,0.8992 -0.4432,1.2571 -0.2926,0.358 -0.6676,0.5838 -1.125,0.6776 v 0.0596 c 0.3494,0.0569 0.6662,0.1875 0.9503,0.3921 0.2869,0.2017 0.5142,0.456 0.6818,0.7628 0.1705,0.3039 0.2571,0.6378 0.2599,1.0014 -0.0028,0.4716 -0.1491,0.8935 -0.4389,1.2656 -0.2897,0.3722 -0.6903,0.6662 -1.2017,0.8821 -0.5085,0.2131 -1.0909,0.3196 -1.7471,0.3196 z m 0,-1.3551 c 0.2926,0 0.5483,-0.0526 0.767,-0.1577 0.2188,-0.1079 0.3892,-0.2556 0.5114,-0.4431 0.125,-0.1904 0.1875,-0.4091 0.1875,-0.6563 0,-0.2528 -0.0639,-0.4759 -0.1918,-0.669 -0.1278,-0.1961 -0.3011,-0.3495 -0.5199,-0.4603 -0.2187,-0.1136 -0.4701,-0.1704 -0.7542,-0.1704 -0.2813,0 -0.5327,0.0568 -0.7543,0.1704 -0.2216,0.1108 -0.3963,0.2642 -0.5241,0.4603 -0.125,0.1931 -0.1875,0.4162 -0.1875,0.669 0,0.2472 0.061,0.4659 0.1832,0.6563 0.1222,0.1875 0.294,0.3352 0.5156,0.4431 0.2216,0.1051 0.4773,0.1577 0.7671,0.1577 z m 0,-3.8991 c 0.2443,0 0.4616,-0.0498 0.652,-0.1492 0.1903,-0.0994 0.3394,-0.2372 0.4474,-0.4133 0.1079,-0.1762 0.1619,-0.3793 0.1619,-0.6094 0,-0.2273 -0.054,-0.4262 -0.1619,-0.5966 -0.108,-0.1733 -0.2557,-0.3082 -0.4432,-0.4048 -0.1875,-0.0995 -0.4062,-0.1492 -0.6562,-0.1492 -0.2472,0 -0.4659,0.0497 -0.6563,0.1492 -0.1903,0.0966 -0.3395,0.2315 -0.4474,0.4048 -0.1051,0.1704 -0.1577,0.3693 -0.1577,0.5966 0,0.2301 0.054,0.4332 0.1619,0.6094 0.108,0.1761 0.2571,0.3139 0.4475,0.4133 0.1903,0.0994 0.4076,0.1492 0.652,0.1492 z"
     fill="#ffffff"
     id="path6" />
</svg>
