<?xml version="1.0" encoding="UTF-8" standalone="no"?>
<svg
   width="28"
   height="28"
   viewBox="0 0 28 28"
   fill="none"
   version="1.1"
   id="svg8"
   xmlns="http://www.w3.org/2000/svg"
   xmlns:svg="http://www.w3.org/2000/svg">
  <defs
     id="defs12" />
  <rect
     x="-9.5992498"
     y="12.013469"
     width="16.3701"
     height="16.3701"
     transform="rotate(-45)"
     fill="#228126"
     stroke="#124214"
     id="rect4" />
  <path
     d="m 6.64844,19 v -1.2188 l 2.84765,-2.6367 c 0.24219,-0.2343 0.44532,-0.4453 0.60941,-0.6328 0.1666,-0.1875 0.2929,-0.3711 0.3789,-0.5508 0.0859,-0.1823 0.1289,-0.3789 0.1289,-0.5898 0,-0.2344 -0.0534,-0.4362 -0.1602,-0.6055 -0.1067,-0.1719 -0.2526,-0.3034 -0.4375,-0.3945 -0.18487,-0.0938 -0.39451,-0.1406 -0.62888,-0.1406 -0.24479,0 -0.45833,0.0494 -0.64063,0.1484 -0.18229,0.099 -0.32291,0.2409 -0.42187,0.4258 -0.09896,0.1849 -0.14844,0.4049 -0.14844,0.6601 H 6.57031 c 0,-0.5234 0.11849,-0.9778 0.35547,-1.3632 0.23698,-0.3855 0.56901,-0.6836 0.9961,-0.8946 0.42708,-0.2109 0.91927,-0.3164 1.47656,-0.3164 0.57291,0 1.07166,0.1016 1.49606,0.3047 0.4271,0.2005 0.7591,0.4792 0.9961,0.8359 0.237,0.3568 0.3555,0.7657 0.3555,1.2266 0,0.3021 -0.0599,0.6003 -0.1797,0.8945 -0.1172,0.2943 -0.3268,0.6211 -0.6289,0.9805 -0.3021,0.3568 -0.7279,0.7852 -1.2773,1.2852 l -1.16801,1.1445 v 0.0547 H 12.3516 V 19 Z M 13.8936,19 17.21,12.4375 V 12.3828 H 13.3467 V 11 H 18.96 v 1.4023 L 15.6396,19 Z"
     fill="#ffffff"
     id="path6" />
</svg>
