<?xml version="1.0" encoding="UTF-8" standalone="no"?>
<svg
   width="28"
   height="28"
   viewBox="0 0 28 28"
   fill="none"
   version="1.1"
   id="svg8"
   xmlns="http://www.w3.org/2000/svg"
   xmlns:svg="http://www.w3.org/2000/svg">
  <defs
     id="defs12" />
  <rect
     x="-9.5992498"
     y="12.013469"
     width="16.3701"
     height="16.3701"
     transform="rotate(-45)"
     fill="#228126"
     stroke="#124214"
     id="rect4" />
  <path
     d="m 6.64844,19 v -1.2188 l 2.84765,-2.6367 c 0.24219,-0.2343 0.44532,-0.4453 0.60941,-0.6328 0.1666,-0.1875 0.2929,-0.3711 0.3789,-0.5508 0.0859,-0.1823 0.1289,-0.3789 0.1289,-0.5898 0,-0.2344 -0.0534,-0.4362 -0.1602,-0.6055 -0.1067,-0.1719 -0.2526,-0.3034 -0.4375,-0.3945 -0.18487,-0.0938 -0.39451,-0.1406 -0.62888,-0.1406 -0.24479,0 -0.45833,0.0494 -0.64063,0.1484 -0.18229,0.099 -0.32291,0.2409 -0.42187,0.4258 -0.09896,0.1849 -0.14844,0.4049 -0.14844,0.6601 H 6.57031 c 0,-0.5234 0.11849,-0.9778 0.35547,-1.3632 0.23698,-0.3855 0.56901,-0.6836 0.9961,-0.8946 0.42708,-0.2109 0.91927,-0.3164 1.47656,-0.3164 0.57291,0 1.07166,0.1016 1.49606,0.3047 0.4271,0.2005 0.7591,0.4792 0.9961,0.8359 0.237,0.3568 0.3555,0.7657 0.3555,1.2266 0,0.3021 -0.0599,0.6003 -0.1797,0.8945 -0.1172,0.2943 -0.3268,0.6211 -0.6289,0.9805 -0.3021,0.3568 -0.7279,0.7852 -1.2773,1.2852 l -1.16801,1.1445 v 0.0547 H 12.3516 V 19 Z m 9.91306,0.1094 c -0.6015,0 -1.1367,-0.0977 -1.6054,-0.293 C 14.4899,18.6185 14.124,18.349 13.8584,18.0078 13.5928,17.6667 13.46,17.2799 13.46,16.8477 c 0,-0.3334 0.0755,-0.6394 0.2265,-0.918 0.1537,-0.2813 0.362,-0.5143 0.625,-0.6992 0.263,-0.1875 0.5573,-0.3073 0.8828,-0.3594 v -0.0547 c -0.427,-0.0859 -0.7734,-0.293 -1.039,-0.6211 -0.2657,-0.3307 -0.3985,-0.7148 -0.3985,-1.1523 0,-0.4141 0.1211,-0.7826 0.3633,-1.1055 0.2422,-0.3255 0.5742,-0.5807 0.9961,-0.7656 0.4245,-0.1875 0.9063,-0.2813 1.4453,-0.2813 0.5391,0 1.0196,0.0938 1.4414,0.2813 0.4245,0.1875 0.7578,0.444 1,0.7695 0.2422,0.3229 0.3646,0.6901 0.3672,1.1016 -0.0026,0.4401 -0.138,0.8242 -0.4062,1.1523 -0.2683,0.3281 -0.612,0.5352 -1.0313,0.6211 v 0.0547 c 0.3203,0.0521 0.6107,0.1719 0.8711,0.3594 0.263,0.1849 0.4714,0.4179 0.625,0.6992 0.1563,0.2786 0.2357,0.5846 0.2383,0.918 -0.0026,0.4322 -0.1367,0.819 -0.4024,1.1601 -0.2656,0.3412 -0.6328,0.6107 -1.1015,0.8086 -0.4662,0.1953 -1,0.293 -1.6016,0.293 z m 0,-1.2422 c 0.2683,0 0.5026,-0.0482 0.7031,-0.1445 0.2006,-0.099 0.3568,-0.2344 0.4688,-0.4063 0.1146,-0.1745 0.1719,-0.375 0.1719,-0.6016 0,-0.2317 -0.0586,-0.4362 -0.1758,-0.6132 -0.1172,-0.1797 -0.276,-0.3203 -0.4766,-0.4219 -0.2005,-0.1042 -0.431,-0.1563 -0.6914,-0.1563 -0.2578,0 -0.4883,0.0521 -0.6914,0.1563 -0.2031,0.1016 -0.3633,0.2422 -0.4805,0.4219 -0.1145,0.177 -0.1718,0.3815 -0.1718,0.6132 0,0.2266 0.056,0.4271 0.1679,0.6016 0.112,0.1719 0.2696,0.3073 0.4727,0.4063 0.2031,0.0963 0.4375,0.1445 0.7031,0.1445 z m 0,-3.5742 c 0.224,0 0.4232,-0.0456 0.5977,-0.1368 0.1745,-0.0911 0.3112,-0.2174 0.4101,-0.3789 0.099,-0.1614 0.1485,-0.3476 0.1485,-0.5586 0,-0.2083 -0.0495,-0.3906 -0.1485,-0.5468 -0.0989,-0.1589 -0.2343,-0.2826 -0.4062,-0.3711 -0.1719,-0.0912 -0.3724,-0.1367 -0.6016,-0.1367 -0.2265,0 -0.4271,0.0455 -0.6015,0.1367 -0.1745,0.0885 -0.3112,0.2122 -0.4102,0.3711 -0.0963,0.1562 -0.1445,0.3385 -0.1445,0.5468 0,0.211 0.0495,0.3972 0.1484,0.5586 0.099,0.1615 0.2357,0.2878 0.4102,0.3789 0.1744,0.0912 0.3737,0.1368 0.5976,0.1368 z"
     fill="#ffffff"
     id="path6" />
</svg>
