<?xml version="1.0" encoding="UTF-8" standalone="no"?>
<svg
   width="28"
   height="28"
   viewBox="0 0 28 28"
   fill="none"
   version="1.1"
   id="svg8"
   xmlns="http://www.w3.org/2000/svg"
   xmlns:svg="http://www.w3.org/2000/svg">
  <defs
     id="defs12" />
  <rect
     x="-9.5992498"
     y="12.013469"
     width="16.3701"
     height="16.3701"
     transform="rotate(-45)"
     fill="#228126"
     stroke="#124214"
     id="rect4" />
  <path
     d="m 6.64844,19 v -1.2188 l 2.84765,-2.6367 c 0.24219,-0.2343 0.44532,-0.4453 0.60941,-0.6328 0.1666,-0.1875 0.2929,-0.3711 0.3789,-0.5508 0.0859,-0.1823 0.1289,-0.3789 0.1289,-0.5898 0,-0.2344 -0.0534,-0.4362 -0.1602,-0.6055 -0.1067,-0.1719 -0.2526,-0.3034 -0.4375,-0.3945 -0.18487,-0.0938 -0.39451,-0.1406 -0.62888,-0.1406 -0.24479,0 -0.45833,0.0494 -0.64063,0.1484 -0.18229,0.099 -0.32291,0.2409 -0.42187,0.4258 -0.09896,0.1849 -0.14844,0.4049 -0.14844,0.6601 H 6.57031 c 0,-0.5234 0.11849,-0.9778 0.35547,-1.3632 0.23698,-0.3855 0.56901,-0.6836 0.9961,-0.8946 0.42708,-0.2109 0.91927,-0.3164 1.47656,-0.3164 0.57291,0 1.07166,0.1016 1.49606,0.3047 0.4271,0.2005 0.7591,0.4792 0.9961,0.8359 0.237,0.3568 0.3555,0.7657 0.3555,1.2266 0,0.3021 -0.0599,0.6003 -0.1797,0.8945 -0.1172,0.2943 -0.3268,0.6211 -0.6289,0.9805 -0.3021,0.3568 -0.7279,0.7852 -1.2773,1.2852 l -1.16801,1.1445 v 0.0547 H 12.3516 V 19 Z m 9.82326,-8.1094 c 0.4114,0 0.8073,0.069 1.1875,0.2071 0.3828,0.138 0.7239,0.358 1.0234,0.6601 0.3021,0.3021 0.5404,0.7031 0.7149,1.2031 0.177,0.4974 0.2669,1.1081 0.2695,1.8321 0,0.6797 -0.0768,1.2864 -0.2305,1.8203 -0.151,0.5312 -0.3685,0.9831 -0.6523,1.3555 -0.2839,0.3723 -0.6263,0.6562 -1.0274,0.8515 -0.401,0.1927 -0.8489,0.2891 -1.3437,0.2891 -0.5339,0 -1.0052,-0.1029 -1.4141,-0.3086 -0.4088,-0.2084 -0.7383,-0.4909 -0.9883,-0.8477 -0.2474,-0.3594 -0.3971,-0.763 -0.4492,-1.2109 h 1.668 c 0.0651,0.2917 0.2018,0.5182 0.4101,0.6797 0.2084,0.1588 0.4662,0.2383 0.7735,0.2383 0.5208,0 0.9167,-0.2266 1.1875,-0.6797 0.2708,-0.4558 0.4075,-1.0795 0.4101,-1.8711 h -0.0546 c -0.1198,0.2343 -0.2813,0.4362 -0.4844,0.6054 -0.2031,0.1667 -0.4362,0.2956 -0.6992,0.3868 -0.2605,0.0911 -0.5378,0.1367 -0.8321,0.1367 -0.4713,0 -0.8919,-0.1107 -1.2617,-0.3321 -0.3698,-0.2213 -0.6614,-0.526 -0.875,-0.914 -0.2135,-0.388 -0.3203,-0.8307 -0.3203,-1.3281 -0.0026,-0.5365 0.1211,-1.0144 0.3711,-1.4336 0.25,-0.4193 0.599,-0.7474 1.0469,-0.9844 0.4505,-0.2396 0.9739,-0.3581 1.5703,-0.3555 z m 0.0117,1.3281 c -0.263,0 -0.4974,0.0625 -0.7031,0.1876 -0.2032,0.1249 -0.3646,0.2929 -0.4844,0.5039 -0.1172,0.2109 -0.1745,0.4466 -0.1719,0.707 0,0.263 0.0573,0.5 0.1719,0.7109 0.1172,0.2084 0.276,0.375 0.4766,0.5 0.2031,0.1224 0.4349,0.1836 0.6953,0.1836 0.1953,0 0.3763,-0.0364 0.5429,-0.1094 0.1667,-0.0729 0.3112,-0.1731 0.4336,-0.3007 0.125,-0.1302 0.2227,-0.28 0.293,-0.4493 0.0703,-0.1692 0.1055,-0.3489 0.1055,-0.539 -0.0026,-0.2526 -0.0625,-0.4844 -0.1797,-0.6953 -0.1172,-0.211 -0.2787,-0.3802 -0.4844,-0.5078 -0.2057,-0.1276 -0.4375,-0.1915 -0.6953,-0.1915 z"
     fill="#ffffff"
     id="path6" />
</svg>
