<?xml version="1.0" encoding="UTF-8" standalone="no"?>
<svg
   width="28"
   height="28"
   viewBox="0 0 28 28"
   fill="none"
   version="1.1"
   id="svg8"
   xmlns="http://www.w3.org/2000/svg"
   xmlns:svg="http://www.w3.org/2000/svg">
  <defs
     id="defs12" />
  <rect
     x="-9.5992498"
     y="12.013469"
     width="16.3701"
     height="16.3701"
     transform="rotate(-45)"
     fill="#6c1fb3"
     stroke="#350f58"
     id="rect4" />
  <path
     d="M 6.52734,17.5938 V 16.2617 L 9.86719,11 h 1.14841 v 1.8437 h -0.6797 l -2.10543,3.3321 v 0.0625 h 4.74613 v 1.3555 z M 10.3672,19 v -1.8125 l 0.0312,-0.5898 V 11 h 1.586 v 8 z m 3.7363,0 v -1.2188 l 2.8477,-2.6367 c 0.2422,-0.2343 0.4453,-0.4453 0.6093,-0.6328 0.1667,-0.1875 0.293,-0.3711 0.379,-0.5508 0.0859,-0.1823 0.1289,-0.3789 0.1289,-0.5898 0,-0.2344 -0.0534,-0.4362 -0.1602,-0.6055 -0.1068,-0.1719 -0.2526,-0.3034 -0.4375,-0.3945 -0.1849,-0.0938 -0.3945,-0.1406 -0.6289,-0.1406 -0.2448,0 -0.4583,0.0494 -0.6406,0.1484 -0.1823,0.099 -0.3229,0.2409 -0.4219,0.4258 -0.099,0.1849 -0.1484,0.4049 -0.1484,0.6601 h -1.6055 c 0,-0.5234 0.1185,-0.9778 0.3555,-1.3632 0.2369,-0.3855 0.569,-0.6836 0.9961,-0.8946 0.427,-0.2109 0.9192,-0.3164 1.4765,-0.3164 0.5729,0 1.0716,0.1016 1.4961,0.3047 0.4271,0.2005 0.7591,0.4792 0.9961,0.8359 0.237,0.3568 0.3555,0.7657 0.3555,1.2266 0,0.3021 -0.0599,0.6003 -0.1797,0.8945 -0.1172,0.2943 -0.3268,0.6211 -0.6289,0.9805 -0.3021,0.3568 -0.7279,0.7852 -1.2774,1.2852 l -1.1679,1.1445 v 0.0547 h 3.3593 V 19 Z"
     fill="#fffffa"
     id="path6" />
</svg>
