<?xml version="1.0" encoding="UTF-8" standalone="no"?>
<svg
   width="28"
   height="28"
   viewBox="0 0 28 28"
   fill="none"
   version="1.1"
   id="svg8"
   xmlns="http://www.w3.org/2000/svg"
   xmlns:svg="http://www.w3.org/2000/svg">
  <defs
     id="defs12" />
  <rect
     x="-9.5992498"
     y="12.013469"
     width="16.3701"
     height="16.3701"
     transform="rotate(-45)"
     fill="#6c1fb3"
     stroke="#350f58"
     id="rect4" />
  <path
     d="M 6.52734,17.5938 V 16.2617 L 9.86719,11 h 1.14841 v 1.8437 h -0.6797 l -2.10543,3.3321 v 0.0625 h 4.74613 v 1.3555 z M 10.3672,19 v -1.8125 l 0.0312,-0.5898 V 11 h 1.586 v 8 z m 6.8066,0.1094 c -0.4114,-0.0026 -0.8086,-0.0716 -1.1914,-0.2071 -0.3802,-0.1354 -0.7213,-0.3554 -1.0234,-0.6601 -0.3021,-0.3047 -0.5417,-0.7083 -0.7188,-1.211 -0.1744,-0.5026 -0.2617,-1.1197 -0.2617,-1.8515 0.0026,-0.6719 0.0794,-1.2721 0.2305,-1.8008 0.1536,-0.5312 0.3724,-0.9818 0.6562,-1.3516 0.2865,-0.3697 0.6289,-0.651 1.0274,-0.8437 0.3984,-0.1953 0.845,-0.293 1.3398,-0.293 0.5339,0 1.0052,0.1042 1.4141,0.3125 0.4088,0.2058 0.737,0.4857 0.9844,0.8399 0.25,0.3541 0.401,0.7513 0.4531,1.1914 h -1.668 c -0.0651,-0.2787 -0.2018,-0.4974 -0.4101,-0.6563 -0.2084,-0.1588 -0.4662,-0.2383 -0.7735,-0.2383 -0.5208,0 -0.9166,0.2266 -1.1875,0.6797 -0.2682,0.4532 -0.4049,1.069 -0.4101,1.8477 h 0.0547 c 0.1197,-0.237 0.2812,-0.4388 0.4843,-0.6055 0.2058,-0.1693 0.4388,-0.2982 0.6992,-0.3867 0.2631,-0.0911 0.5404,-0.1367 0.8321,-0.1367 0.4739,0 0.8958,0.112 1.2656,0.3359 0.3698,0.2214 0.6615,0.5261 0.875,0.9141 0.2135,0.388 0.3203,0.832 0.3203,1.332 0,0.5417 -0.1263,1.0234 -0.3789,1.4453 -0.25,0.4219 -0.6003,0.7526 -1.0508,0.9922 -0.4479,0.237 -0.9687,0.3542 -1.5625,0.3516 z M 17.166,17.7812 c 0.2604,0 0.4935,-0.0625 0.6992,-0.1874 0.2058,-0.1251 0.3672,-0.2943 0.4844,-0.5079 0.1172,-0.2135 0.1758,-0.4531 0.1758,-0.7187 0,-0.2656 -0.0586,-0.5039 -0.1758,-0.7149 -0.1146,-0.2109 -0.2734,-0.3789 -0.4766,-0.5039 -0.2031,-0.125 -0.4348,-0.1875 -0.6953,-0.1875 -0.1953,0 -0.3763,0.0365 -0.5429,0.1094 -0.1641,0.0729 -0.3086,0.1745 -0.4336,0.3047 -0.1224,0.1302 -0.2188,0.2812 -0.2891,0.4531 -0.0703,0.1693 -0.1055,0.3503 -0.1055,0.543 0,0.2578 0.0586,0.4935 0.1758,0.707 0.1198,0.2136 0.2813,0.3841 0.4844,0.5117 0.2057,0.1276 0.4388,0.1914 0.6992,0.1914 z"
     fill="#fffffa"
     id="path6" />
</svg>
