<?xml version="1.0" encoding="UTF-8" standalone="no"?>
<svg
   width="28"
   height="28"
   viewBox="0 0 28 28"
   fill="none"
   version="1.1"
   id="svg8"
   xmlns="http://www.w3.org/2000/svg"
   xmlns:svg="http://www.w3.org/2000/svg">
  <defs
     id="defs12" />
  <rect
     x="-9.5992498"
     y="12.013469"
     width="16.3701"
     height="16.3701"
     transform="rotate(-45)"
     fill="#928300"
     stroke="#5f5101"
     id="rect4" />
  <path
     d="m 9.57031,19.1094 c -0.55208,0 -1.04427,-0.1016 -1.47656,-0.3047 C 7.66406,18.6016 7.32292,18.3216 7.07031,17.9648 6.81771,17.6081 6.6862,17.1992 6.67578,16.7383 h 1.64063 c 0.01823,0.3099 0.14843,0.5612 0.39062,0.7539 0.24219,0.1927 0.52995,0.289 0.86328,0.289 0.26563,0 0.49999,-0.0585 0.70309,-0.1757 0.2058,-0.1198 0.3659,-0.2852 0.4805,-0.4961 0.1172,-0.2136 0.1758,-0.4584 0.1758,-0.7344 0,-0.2813 -0.0599,-0.5286 -0.1797,-0.7422 -0.1172,-0.2135 -0.2799,-0.3802 -0.4883,-0.5 -0.2083,-0.1198 -0.4466,-0.181 -0.71482,-0.1836 -0.23438,0 -0.46224,0.0482 -0.6836,0.1445 -0.21875,0.0964 -0.38932,0.2279 -0.51172,0.3946 L 6.84766,15.2188 7.22656,11 h 4.89064 v 1.3828 H 8.62109 l -0.20703,2.0039 h 0.04688 c 0.14062,-0.1979 0.35286,-0.362 0.63672,-0.4922 0.28385,-0.1302 0.60156,-0.1953 0.95314,-0.1953 0.4818,0 0.9114,0.1133 1.289,0.3399 0.3776,0.2265 0.6758,0.5377 0.8946,0.9336 0.2187,0.3932 0.3268,0.8463 0.3242,1.3593 0.0026,0.5391 -0.1224,1.0183 -0.375,1.4375 -0.25,0.4167 -0.6003,0.7448 -1.0508,0.9844 -0.4479,0.237 -0.9687,0.3555 -1.56249,0.3555 z M 13.7383,19 v -1.2188 l 2.8476,-2.6367 c 0.2422,-0.2343 0.4454,-0.4453 0.6094,-0.6328 0.1667,-0.1875 0.293,-0.3711 0.3789,-0.5508 0.086,-0.1823 0.1289,-0.3789 0.1289,-0.5898 0,-0.2344 -0.0534,-0.4362 -0.1601,-0.6055 -0.1068,-0.1719 -0.2526,-0.3034 -0.4375,-0.3945 -0.1849,-0.0938 -0.3946,-0.1406 -0.6289,-0.1406 -0.2448,0 -0.4584,0.0494 -0.6407,0.1484 -0.1823,0.099 -0.3229,0.2409 -0.4218,0.4258 -0.099,0.1849 -0.1485,0.4049 -0.1485,0.6601 h -1.6054 c 0,-0.5234 0.1184,-0.9778 0.3554,-1.3632 0.237,-0.3855 0.569,-0.6836 0.9961,-0.8946 0.4271,-0.2109 0.9193,-0.3164 1.4766,-0.3164 0.5729,0 1.0716,0.1016 1.4961,0.3047 0.4271,0.2005 0.7591,0.4792 0.9961,0.8359 0.2369,0.3568 0.3554,0.7657 0.3554,1.2266 0,0.3021 -0.0599,0.6003 -0.1796,0.8945 -0.1172,0.2943 -0.3269,0.6211 -0.629,0.9805 -0.302,0.3568 -0.7278,0.7852 -1.2773,1.2852 l -1.168,1.1445 v 0.0547 h 3.3594 V 19 Z"
     fill="#f4f4f4"
     id="path6" />
</svg>
