<?xml version="1.0" encoding="UTF-8" standalone="no"?>
<svg
   width="28"
   height="28"
   viewBox="0 0 28 28"
   fill="none"
   version="1.1"
   id="svg8"
   xmlns="http://www.w3.org/2000/svg"
   xmlns:svg="http://www.w3.org/2000/svg">
  <defs
     id="defs12" />
  <rect
     x="-9.5992498"
     y="12.013469"
     width="16.3701"
     height="16.3701"
     transform="rotate(-45)"
     fill="#928300"
     stroke="#5f5101"
     id="rect4" />
  <path
     d="M 9.71875,19.1094 C 9.30729,19.1068 8.91016,19.0378 8.52734,18.9023 8.14714,18.7669 7.80599,18.5469 7.50391,18.2422 7.20182,17.9375 6.96224,17.5339 6.78516,17.0312 6.61068,16.5286 6.52344,15.9115 6.52344,15.1797 c 0.0026,-0.6719 0.07942,-1.2721 0.23047,-1.8008 0.15364,-0.5312 0.37239,-0.9818 0.65625,-1.3516 0.28645,-0.3697 0.6289,-0.651 1.02734,-0.8437 0.39844,-0.1953 0.84505,-0.293 1.33984,-0.293 0.53386,0 1.00526,0.1042 1.41406,0.3125 0.4089,0.2058 0.737,0.4857 0.9844,0.8399 0.25,0.3541 0.401,0.7513 0.4531,1.1914 h -1.668 c -0.0651,-0.2787 -0.2018,-0.4974 -0.4101,-0.6563 -0.2084,-0.1588 -0.4662,-0.2383 -0.77346,-0.2383 -0.52083,0 -0.91666,0.2266 -1.1875,0.6797 -0.26823,0.4532 -0.40494,1.069 -0.41015,1.8477 h 0.05469 c 0.11979,-0.237 0.28125,-0.4388 0.48437,-0.6055 0.20573,-0.1693 0.4388,-0.2982 0.69922,-0.3867 0.26302,-0.0911 0.54036,-0.1367 0.83203,-0.1367 0.474,0 0.8958,0.112 1.2656,0.3359 0.3698,0.2214 0.6615,0.5261 0.875,0.9141 0.2136,0.388 0.3203,0.832 0.3203,1.332 0,0.5417 -0.1263,1.0234 -0.3789,1.4453 -0.25,0.4219 -0.6002,0.7526 -1.0507,0.9922 -0.448,0.237 -0.9688,0.3542 -1.56255,0.3516 z M 9.71094,17.7812 c 0.26041,0 0.49346,-0.0625 0.69926,-0.1874 0.2057,-0.1251 0.3671,-0.2943 0.4843,-0.5079 0.1172,-0.2135 0.1758,-0.4531 0.1758,-0.7187 0,-0.2656 -0.0586,-0.5039 -0.1758,-0.7149 -0.1146,-0.2109 -0.2734,-0.3789 -0.4765,-0.5039 -0.2032,-0.125 -0.43493,-0.1875 -0.69534,-0.1875 -0.19532,0 -0.37631,0.0365 -0.54297,0.1094 -0.16406,0.0729 -0.3086,0.1745 -0.4336,0.3047 -0.12239,0.1302 -0.21875,0.2812 -0.28906,0.4531 -0.07031,0.1693 -0.10547,0.3503 -0.10547,0.543 0,0.2578 0.0586,0.4935 0.17578,0.707 0.1198,0.2136 0.28125,0.3841 0.48438,0.5117 0.20573,0.1276 0.4388,0.1914 0.69922,0.1914 z M 13.9102,19 v -1.2188 l 2.8476,-2.6367 c 0.2422,-0.2343 0.4453,-0.4453 0.6094,-0.6328 0.1667,-0.1875 0.293,-0.3711 0.3789,-0.5508 0.0859,-0.1823 0.1289,-0.3789 0.1289,-0.5898 0,-0.2344 -0.0534,-0.4362 -0.1602,-0.6055 -0.1067,-0.1719 -0.2526,-0.3034 -0.4375,-0.3945 -0.1849,-0.0938 -0.3945,-0.1406 -0.6289,-0.1406 -0.2448,0 -0.4583,0.0494 -0.6406,0.1484 -0.1823,0.099 -0.3229,0.2409 -0.4219,0.4258 -0.0989,0.1849 -0.1484,0.4049 -0.1484,0.6601 H 13.832 c 0,-0.5234 0.1185,-0.9778 0.3555,-1.3632 0.237,-0.3855 0.569,-0.6836 0.9961,-0.8946 0.4271,-0.2109 0.9193,-0.3164 1.4766,-0.3164 0.5729,0 1.0716,0.1016 1.4961,0.3047 0.427,0.2005 0.7591,0.4792 0.996,0.8359 0.237,0.3568 0.3555,0.7657 0.3555,1.2266 0,0.3021 -0.0599,0.6003 -0.1797,0.8945 -0.1172,0.2943 -0.3268,0.6211 -0.6289,0.9805 -0.3021,0.3568 -0.7278,0.7852 -1.2773,1.2852 l -1.168,1.1445 v 0.0547 h 3.3594 V 19 Z"
     fill="#f4f4f4"
     id="path6" />
</svg>
