<?xml version="1.0" encoding="UTF-8" standalone="no"?>
<svg
   width="28"
   height="28"
   viewBox="0 0 28 28"
   fill="none"
   version="1.1"
   id="svg8"
   xmlns="http://www.w3.org/2000/svg"
   xmlns:svg="http://www.w3.org/2000/svg">
  <defs
     id="defs12" />
  <rect
     x="-9.5992498"
     y="12.013469"
     width="16.3701"
     height="16.3701"
     transform="rotate(-45)"
     fill="#0f6fc2"
     stroke="#03345f"
     id="rect4" />
  <path
     d="M 7.96484,19 11.2813,12.4375 V 12.3828 H 7.41797 V 11 h 5.61333 v 1.4023 L 9.71094,19 Z m 9.04006,0.1094 c -0.5521,0 -1.0443,-0.1016 -1.4766,-0.3047 -0.4297,-0.2031 -0.7708,-0.4831 -1.0234,-0.8399 -0.2526,-0.3567 -0.3841,-0.7656 -0.3945,-1.2265 h 1.6406 c 0.0182,0.3099 0.1484,0.5612 0.3906,0.7539 0.2422,0.1927 0.5299,0.289 0.8633,0.289 0.2656,0 0.5,-0.0585 0.7031,-0.1757 0.2057,-0.1198 0.3659,-0.2852 0.4805,-0.4961 0.1172,-0.2136 0.1758,-0.4584 0.1758,-0.7344 0,-0.2813 -0.0599,-0.5286 -0.1797,-0.7422 -0.1172,-0.2135 -0.28,-0.3802 -0.4883,-0.5 -0.2083,-0.1198 -0.4466,-0.181 -0.7149,-0.1836 -0.2343,0 -0.4622,0.0482 -0.6835,0.1445 -0.2188,0.0964 -0.3894,0.2279 -0.5118,0.3946 L 14.2822,15.2188 14.6611,11 h 4.8907 v 1.3828 h -3.4961 l -0.2071,2.0039 h 0.0469 c 0.1406,-0.1979 0.3529,-0.362 0.6367,-0.4922 0.2839,-0.1302 0.6016,-0.1953 0.9532,-0.1953 0.4817,0 0.9114,0.1133 1.289,0.3399 0.3776,0.2265 0.6758,0.5377 0.8945,0.9336 0.2188,0.3932 0.3269,0.8463 0.3243,1.3593 0.0026,0.5391 -0.1224,1.0183 -0.375,1.4375 -0.25,0.4167 -0.6003,0.7448 -1.0508,0.9844 -0.4479,0.237 -0.9688,0.3555 -1.5625,0.3555 z"
     fill="#f4f4f4"
     id="path6" />
</svg>
